<svg width="403" height="403" viewBox="0 0 403 403" fill="none" xmlns="http://www.w3.org/2000/svg">
<path d="M294.636 402.04C278.993 401.924 263.418 399.961 248.236 396.19C195.806 383.54 141.816 351.45 96.2362 305.83C50.6562 260.21 18.5262 206.21 5.87617 153.83C-7.44383 98.7302 2.05617 51.5902 32.5962 21.0502L41.3162 12.3302C49.2278 4.43446 59.9487 0 71.1262 0C82.3037 0 93.0246 4.43446 100.936 12.3302L151.046 62.4302C158.947 70.3392 163.385 81.0611 163.385 92.2402C163.385 103.419 158.947 114.141 151.046 122.05L121.446 151.64C135.636 176.54 154.936 201.46 177.746 224.27C200.556 247.08 225.496 266.39 250.386 280.58L279.976 250.98C283.89 247.065 288.538 243.958 293.652 241.839C298.767 239.72 304.25 238.629 309.786 238.629C315.323 238.629 320.805 239.72 325.92 241.839C331.035 243.958 335.682 247.065 339.596 250.98L389.696 301.08C397.599 308.986 402.038 319.707 402.038 330.885C402.038 342.064 397.599 352.784 389.696 360.69L380.966 369.41C359.436 390.98 329.636 402.04 294.636 402.04ZM71.1262 29.9802C69.5295 29.9723 67.9473 30.2831 66.4723 30.8944C64.9973 31.5057 63.6591 32.4052 62.5362 33.5402L53.8062 42.2602C30.9362 65.1302 24.2562 102.26 34.9962 146.75C46.3662 193.88 75.6362 242.85 117.406 284.61C159.176 326.37 208.136 355.61 255.276 367.02C299.776 377.76 336.886 371.08 359.756 348.21L368.476 339.49C370.755 337.21 372.034 334.119 372.034 330.895C372.034 327.672 370.755 324.58 368.476 322.3L318.386 272.2C316.106 269.922 313.015 268.642 309.791 268.642C306.568 268.642 303.476 269.922 301.196 272.2L263.686 309.71C261.435 311.962 258.527 313.44 255.38 313.929C252.234 314.418 249.014 313.893 246.186 312.43C215.436 296.53 184.436 273.38 156.536 245.48C128.636 217.58 105.536 186.6 89.5962 155.85C88.1324 153.023 87.606 149.804 88.0931 146.658C88.5803 143.512 90.0558 140.602 92.3062 138.35L129.826 100.84C132.105 98.5601 133.384 95.4686 133.384 92.2452C133.384 89.0219 132.105 85.9304 129.826 83.6502L79.7262 33.5402C78.5997 32.4071 77.2594 31.509 75.7831 30.8979C74.3068 30.2868 72.7239 29.9749 71.1262 29.9802Z" fill="#1662D2"/>
<path d="M310.656 221.71C306.678 221.71 302.863 220.13 300.05 217.317C297.237 214.504 295.656 210.688 295.656 206.71C295.627 180.395 285.161 155.167 266.555 136.558C247.949 117.95 222.721 107.482 196.406 107.45C192.428 107.45 188.613 105.87 185.8 103.057C182.987 100.244 181.406 96.4285 181.406 92.4502C181.406 88.472 182.987 84.6567 185.8 81.8436C188.613 79.0306 192.428 77.4502 196.406 77.4502C267.676 77.4502 325.656 135.45 325.656 206.71C325.656 210.688 324.076 214.504 321.263 217.317C318.45 220.13 314.634 221.71 310.656 221.71Z" fill="#1662D2"/>
<path d="M374.056 221.71C370.078 221.71 366.263 220.13 363.45 217.317C360.637 214.504 359.056 210.688 359.056 206.71C359.056 117.02 286.056 44.0502 196.406 44.0502C192.428 44.0502 188.613 42.4699 185.8 39.6568C182.987 36.8438 181.406 33.0285 181.406 29.0502C181.406 25.072 182.987 21.2567 185.8 18.4436C188.613 15.6306 192.428 14.0502 196.406 14.0502C302.636 14.0502 389.056 100.48 389.056 206.71C389.056 210.688 387.476 214.504 384.663 217.317C381.85 220.13 378.034 221.71 374.056 221.71Z" fill="#1662D2"/>
</svg>
