<svg width="280" height="82" viewBox="0 0 280 82" fill="none" xmlns="http://www.w3.org/2000/svg">
<rect x="0.5" y="0.5" width="279" height="81" rx="7.5" fill="#4268B3" stroke="#0046A5"/>
<path d="M92.7579 14.0001C93.7306 14.0227 94.6789 14.3906 95.3727 15.0938C97.3181 17.0643 97.2688 20.1438 97.1993 22.7192C97.1198 25.6611 96.5505 28.5593 96.0996 31.491C96.0105 32.1305 96.527 32.7732 97.183 32.8092L111.208 33.2774C113.576 33.4971 115.318 35.8599 114.951 38.408C114.754 39.7784 114.01 41.1081 112.809 41.8319C112.809 41.8319 112.595 41.4606 112.98 42.3452C113.782 44.1862 113.126 46.5769 111.083 47.4782C111.083 47.4782 111.854 49.0055 111.612 50.4508C111.373 51.8778 110.229 53.0444 108.838 53.5528C109.767 54.717 110.029 56.4093 109.135 57.7788C108.351 58.9813 107.082 59.9205 105.643 59.991C100.59 59.991 95.5361 60.0112 90.4828 59.991C86.8631 59.9474 83.6148 57.6872 80.319 55.7948C79.0847 55.058 78.2917 53.6962 78.2557 52.263C78.2188 47.4082 78.2188 42.5529 78.2557 37.6976C78.2917 36.2672 79.0799 34.9054 80.319 34.1657C82.0517 33.1709 83.8084 32.2125 85.5401 31.2224C86.957 30.3887 87.5727 28.7713 88.0179 27.0852C88.5895 24.9387 89.2546 22.7605 89.8862 20.6815C90.455 18.6539 88.9691 15.7898 91.1565 14.3915C91.6313 14.0884 92.0219 13.9963 92.7579 14.0001ZM70.0892 31.623C73.05 31.6781 75.7118 34.2123 75.7674 37.3076C75.8029 42.9736 75.8029 48.64 75.7674 54.3064C75.7142 57.2679 73.1803 59.9325 70.0892 59.9906C67.8376 60.0045 65.1384 59.956 65.045 57.4895C64.9443 49.7216 65.044 41.9528 65.044 34.184C65.0613 32.8514 66.1854 31.6752 67.5434 31.6234C68.392 31.6124 69.2406 31.6177 70.0892 31.623Z" fill="white"/>
<path d="M214.106 44.48C214.106 45.12 214.066 45.7867 213.986 46.48H198.506C198.612 47.8667 199.052 48.9333 199.826 49.68C200.626 50.4 201.599 50.76 202.746 50.76C204.452 50.76 205.639 50.04 206.306 48.6H213.586C213.212 50.0667 212.532 51.3867 211.546 52.56C210.586 53.7333 209.372 54.6533 207.906 55.32C206.439 55.9867 204.799 56.32 202.986 56.32C200.799 56.32 198.852 55.8533 197.146 54.92C195.439 53.9867 194.106 52.6533 193.146 50.92C192.186 49.1867 191.706 47.16 191.706 44.84C191.706 42.52 192.172 40.4933 193.106 38.76C194.066 37.0267 195.399 35.6933 197.106 34.76C198.812 33.8267 200.772 33.36 202.986 33.36C205.146 33.36 207.066 33.8133 208.746 34.72C210.426 35.6267 211.732 36.92 212.666 38.6C213.626 40.28 214.106 42.24 214.106 44.48ZM207.106 42.68C207.106 41.5067 206.706 40.5733 205.906 39.88C205.106 39.1867 204.106 38.84 202.906 38.84C201.759 38.84 200.786 39.1733 199.986 39.84C199.212 40.5067 198.732 41.4533 198.546 42.68H207.106Z" fill="white"/>
<path d="M181.979 56L175.179 46.64V56H168.339V26.4H175.179V42.76L181.939 33.68H190.379L181.099 44.88L190.459 56H181.979Z" fill="white"/>
<path d="M159.983 31.36C158.783 31.36 157.796 31.0133 157.023 30.32C156.276 29.6 155.903 28.72 155.903 27.68C155.903 26.6133 156.276 25.7333 157.023 25.04C157.796 24.32 158.783 23.96 159.983 23.96C161.156 23.96 162.116 24.32 162.863 25.04C163.636 25.7333 164.023 26.6133 164.023 27.68C164.023 28.72 163.636 29.6 162.863 30.32C162.116 31.0133 161.156 31.36 159.983 31.36ZM163.383 33.68V56H156.543V33.68H163.383Z" fill="white"/>
<path d="M144.32 50.72H153.28V56H137.48V27.92H144.32V50.72Z" fill="white"/>
</svg>
