<svg width="257" height="237" fill="none" xmlns="http://www.w3.org/2000/svg"><path d="M128.508 237c70.972 0 128.507-33.27 128.507-74.31S199.48 88.38 128.508 88.38C57.535 88.38 0 121.65 0 162.69S57.535 237 128.508 237Z" fill="#A9CBFF"/><path opacity=".1" d="m37.543 215.191 8.487-4.914 13.606 7.875 4.328 2.503-6.72 3.891.625.245 6.628-3.831 17.934 10.363-.93.534.762.168.686-.397 1.523.885 1.676.351-2.666-1.526 17.934-10.363 17.933 10.363-8.578 4.975h.93l8.167-4.731 9.294 5.372h1.021l-9.782-5.662 17.918-10.332 17.934 10.363-8.334 4.822 1.264-.122 7.619-4.395 4.906 2.854.838-.137-5.226-3.053 17.933-10.363 13.043 7.54.671-.214-13.18-7.631 17.934-10.378 16.76 9.661.564-.275-16.761-9.691 17.934-10.363 16.578 9.569.457-.335-16.502-9.539 17.934-10.378 12.571 7.265c.121-.123.228-.26.35-.397l-12.403-7.173 17.949-10.363 4.114 2.381c0-.168.137-.336.198-.489l-3.794-2.197 5.684-3.297c0-.229.152-.473.213-.717l-6.46 3.678-17.95-10.378 17.95-10.363 7.846 4.579v-.626l-7.298-4.212 6.262-3.617c0-.183 0-.367-.121-.55l-6.659 3.862-17.949-10.378 17.233-9.966-.29-.443-17.461 10.103-17.934-10.362 17.934-10.378 16.882 9.767c-.243-.366-.533-.717-.807-1.068l-15.557-9.005 4.723-2.716-.441-.367-4.8 2.778-17.934-10.363 6.567-3.8-.564-.305-6.551 3.785-17.919-10.363 4.663-2.701-.656-.229-4.571 2.625-14.825-8.577-1.859-.473 16.151 9.34-17.934 10.378-17.278-9.997-.656-.381 17.142-9.905-.762-.168-16.898 9.783-17.949-10.378 6.095-3.526h-.929l-5.684 3.236-6.567-3.8h-1.051l7.131 4.12-17.949 10.378-17.934-10.378 5.394-3.052-1.265.122-4.571 2.686-3.047-1.77-.853.122 3.382 1.954-17.934 10.377-11.778-6.822-.7.199 11.838 6.837-17.933 10.378-15.77-9.157-.595.26 15.831 9.157-17.934 10.378-16.013-9.203-.488.32 15.983 9.249-17.949 10.347-12.448-7.203-.381.397 12.372 7.112-17.933 10.378-4.48-2.595-.229.473 4.175 2.427-6.552 3.785c-.076.244-.152.488-.213.732l7.299-4.227 17.933 10.378-17.994 10.317-9.051-5.235v.595l8.548 4.945-7.619 4.38c0 .183.077.366.107.55l8.015-4.579 17.994 10.378-17.994 10.332-1.935-1.114c.198.321.426.641.624.962l.777.457-.35.199.29.442.594-.335 17.994 10.408-6.46 3.739.411.382 6.583-3.8 17.933 10.362-8.471 4.899.457.321Zm9.005-5.22 17.949-10.362 14.14 8.18 3.794 2.182-17.934 10.348-17.95-10.348Zm73.32-42.397 14.383 8.318 3.566 2.06-17.949 10.317-17.934-10.362 17.934-10.333ZM101.4 177.586l-17.933-10.317 17.933-10.363 17.919 10.363-17.919 10.317Zm19.001-10.363 17.918-10.317 15.07 8.7 2.864 1.663-17.934 10.317-17.918-10.363Zm36.401.306 17.933 10.378-17.933 10.362-17.949-10.362 17.949-10.378Zm.518-.306 17.933-10.362 17.919 10.408-17.919 10.317-17.933-10.363Zm-.518-.305-17.949-10.363 17.949-10.378 16.943 9.814.99.564-17.933 10.363Zm-18.483-10.698-17.918-10.363 17.934-10.378 17.918 10.378-17.934 10.363Zm-.518.305-17.949 10.378-17.918-10.363 17.934-10.378 17.933 10.363Zm-36.401-.305-17.293-9.997-.64-.366 17.933-10.378 17.934 10.378L101.4 156.22Zm-.533.305-17.934 10.378-17.278-9.997-.655-.381 17.933-10.378 17.934 10.378Zm-18.452 10.683-17.933 10.378-17.294-9.996-.655-.367 17.949-10.378 17.933 10.363Zm.534.305 17.918 10.363-17.934 10.393-17.918-10.362 17.934-10.394Zm0 21.367 16.76 9.66 1.234.718-17.994 10.378-17.934-10.363 17.934-10.393Zm.533-.306 17.934-10.362 15.069 8.714 2.864 1.648-17.933 10.378-17.934-10.378Zm36.386.306 17.949 10.378-17.949 10.378-17.934-10.363 17.934-10.393Zm.533-.306 17.918-10.316 17.934 10.362-17.934 10.332-17.918-10.378Zm36.401.306 17.933 10.378-17.933 10.378-17.949-10.363 17.949-10.393Zm.518-.306 17.933-10.362 17.919 10.408-17.919 10.332-17.933-10.378Zm18.467-10.683 17.934-10.378 17.933 10.378-17.933 10.378-17.934-10.378Zm18.452-10.683 17.933-10.363 17.949 10.363-17.949 10.378-17.933-10.378Zm-.518-.305-17.934-10.363 17.934-10.378 17.933 10.378-17.933 10.363Zm-17.934-31.714 17.934-10.378 15.434 8.928 2.499 1.45-17.933 10.363-17.934-10.363Zm15.237 9.386 2.209 1.282-17.934 10.378-17.934-10.378 17.934-10.378 15.725 9.096Zm-34.192.977-17.934-10.363 17.949-10.378 17.919 10.363-17.934 10.378Zm-18.467-10.684-17.279-9.996-.655-.366 17.934-10.378 17.934 10.378-17.934 10.362Zm-.518.306-17.949 10.378-17.324-9.936-.655-.381 17.933-10.378 17.995 10.317Zm-36.401-.306-17.98-10.301 17.934-10.378 17.934 10.378-17.888 10.301Zm-.533.306-17.934 10.378-17.934-10.378 17.934-10.378 17.934 10.378Zm-18.452 10.683-17.98 10.363-17.948-10.363 17.949-10.378 17.98 10.378ZM63.994 156.54l-17.98 10.363-17.933-10.378 17.933-10.378 17.98 10.393Zm0 21.367-17.98 10.362-17.278-9.996-.655-.382 17.933-10.378 17.98 10.394Zm.549.32L82.46 188.59l-17.98 10.362-17.933-10.362 17.995-10.363Zm18.406 52.775-17.934-10.363 17.934-10.378 17.933 10.378-17.933 10.363Zm.518-21.031 17.933-10.362 17.934 10.362-17.918 10.348-17.95-10.348Zm36.401 21.031-17.934-10.363 17.934-10.378 17.949 10.378-17.949 10.363Zm.533-21.046 17.918-10.347 17.934 10.362-17.934 10.348-17.918-10.363Zm36.401 21.046-17.949-10.363 17.949-10.378 17.933 10.378-17.933 10.363Zm18.451-10.683-17.933-10.378 17.933-10.363 17.919 10.393-17.919 10.348Zm18.468-10.683-17.934-10.363 17.934-10.378 17.933 10.378-17.933 10.363Zm18.451-10.684-17.933-10.378 17.933-10.362 17.949 10.362-17.949 10.378Zm36.401-21.045-17.934 10.362-17.933-10.362 17.933-10.378 17.934 10.378Zm-17.934-31.73 17.934 10.378-17.934 10.348-17.933-10.363 17.933-10.363Zm-.518-.305-17.949 10.378-17.933-10.378 17.933-10.378 17.949 10.378Zm-17.949-31.729 14.445 8.348 3.504 2.03-17.949 10.378-17.933-10.378 17.933-10.378Zm-18.451-10.683 17.918 10.362-17.934 10.378-17.918-10.362 17.934-10.378Zm-18.468 10.683 17.919 10.378-17.934 10.363-17.918-10.363 17.933-10.378Zm-.533-.305-17.934 10.378-17.293-9.997-.656-.381 17.949-10.378 17.934 10.378Zm-36.401-21 17.934 10.362-17.934 10.378-17.933-10.378 17.933-10.363Zm-.518 21.045-17.949 10.378-17.933-10.378 17.933-10.378 17.949 10.378ZM101.4 92.837l17.934 10.363-17.934 10.378L83.467 103.2 101.4 92.837Zm-18.467 10.684 17.934 10.378-17.934 10.378L65 113.899l17.933-10.378Zm-18.451 10.683 17.933 10.378-17.933 10.363-17.95-10.363 17.95-10.378Zm-18.468 10.683 17.934 10.378-17.934 10.378-17.933-10.378 17.933-10.378Zm-36.4 21.061 17.933-10.378 17.95 10.378-17.95 10.272-17.933-10.272Zm0 21.367 17.933-10.378 17.95 10.378-17.95 10.271-17.933-10.271Zm17.933 31.637-17.217-9.965-.655-.367 17.933-10.378 17.95 10.378-18.01 10.332Zm.549.321 17.934-10.378 17.918 10.363-17.934 10.378-17.918-10.363Z" fill="#39678A"/><g style="mix-blend-mode:multiply" opacity=".6" fill="#AFAA9C"><path d="M164.056 174.976c2.499-.931 6.202-2.076 9.996-3.694 5.058-2.167 2.956-7.386-1.524-11.827-8.898-8.913-15.237 4.395-32.698 5.952a27.664 27.664 0 0 0-10.91 2.777c-7.999 4.411-3.702 14.682 17.675 13.858 5.348-.198 6.963-3.159 17.461-7.066Z"/><path d="M186.697 135.235 71.918 201.623l-48.606-28.097 114.795-66.388 48.59 28.097Z"/><path d="m92.61 202.966-17.965 10.393a4.255 4.255 0 0 1-3.84 0l-11.275-6.516a1.177 1.177 0 0 1 0-2.213l17.964-10.394a4.268 4.268 0 0 1 3.84 0l11.275 6.517a1.157 1.157 0 0 1 .81 1.107 1.16 1.16 0 0 1-.81 1.106Z"/></g><path d="m130.061 166.78-41.14-23.793v-7.921l41.14 23.794v7.92Z" fill="#D1CDC1"/><path d="m185.327 134.822-55.265 31.958v-7.921l55.265-31.973v7.936Z" fill="#E6E2DB"/><path d="m130.061 158.859-17.872-6.974-23.267-16.819 55.264-31.973 41.139 23.793-55.264 31.973Z" fill="#D1CDC1"/><path d="m130.061 158.111-41.14-23.793V46.38l41.14 23.793v87.938Z" fill="#D1CDC1"/><path d="m185.327 126.153-55.265 31.958V70.173l55.265-31.958v87.938Z" fill="#E6E2DB"/><path d="M130.061 70.173 88.921 46.38l55.265-31.958 41.139 23.793-55.264 31.958Z" fill="#F5F2EE"/><path opacity=".5" d="M126.68 70.754 93.844 51.707a2.053 2.053 0 0 0-2.087 0 2.074 2.074 0 0 0-1.052 1.816v73.791a3.18 3.18 0 0 0 1.524 2.762l32.836 19.001a2.117 2.117 0 0 0 2.087 0 2.088 2.088 0 0 0 1.051-1.816V73.455a3.195 3.195 0 0 0-1.523-2.701Zm.883 76.568a1.37 1.37 0 0 1-2.057 1.19L92.61 129.466a2.498 2.498 0 0 1-1.234-2.152V53.523a1.345 1.345 0 0 1 .7-1.19 1.31 1.31 0 0 1 1.372 0l32.836 18.985a2.493 2.493 0 0 1 1.234 2.137l.045 73.867Z" fill="url(#a)"/><path d="M173.904 106.241c7.944-13.782 7.944-28.678 0-33.272-7.943-4.593-20.823 2.855-28.767 16.637-7.943 13.781-7.944 28.678 0 33.271 7.944 4.594 20.823-2.854 28.767-16.636Z" fill="#EAE6DF"/><path d="m174.05 73.058-1.067-.61c-3.687-2.214-8.822-1.939-14.505 1.342-11.23 6.502-20.341 22.298-20.341 35.286 0 6.425 2.224 10.958 5.82 13.109l1.067.626c-3.611-2.167-5.836-6.7-5.836-13.125 0-12.988 9.142-28.784 20.341-35.27 5.684-3.296 10.788-3.571 14.521-1.358Z" fill="url(#b)"/><path opacity=".5" d="M173.591 106.049c7.27-12.613 7.268-26.248-.005-30.454-7.273-4.206-19.063 2.61-26.333 15.223-7.271 12.614-7.269 26.249.004 30.455 7.273 4.206 19.063-2.61 26.334-15.224Z" fill="#D1CDC1"/><path d="m165.03 83.635-4.022 2.38a32.246 32.246 0 0 0-11.169 18.94v4.579c-.106 9.615 6.506 13.735 14.795 9.035 8.289-4.701 15.085-16.163 15.237-25.778.152-9.614-6.506-13.78-14.841-9.156Z" fill="#939393"/><path d="M174.645 75.865c-3.413-2.045-8.167-1.785-13.424 1.252-10.406 6.013-18.832 20.649-18.832 32.675 0 5.937 2.057 10.134 5.394 12.21l3.565 2.06c-6.323-23.213 1.051-39.375 26.878-46.045l-3.581-2.152Z" fill="url(#c)"/><path d="m165.03 83.635-4.022 2.38a32.246 32.246 0 0 0-11.169 18.94v4.579c-.106 9.615 6.506 13.735 14.795 9.035 8.289-4.701 15.085-16.163 15.237-25.778.152-9.614-6.506-13.78-14.841-9.156Z" fill="url(#d)"/><path d="M149.839 104.893c-.091 7.067 4.769 10.043 10.849 6.639 6.079-3.403 11.092-11.873 11.184-18.94.091-7.066-4.785-10.042-10.864-6.638a24.193 24.193 0 0 0-7.857 8.125 24.237 24.237 0 0 0-3.312 10.814Z" fill="url(#e)"/><path d="M161.175 119.911a15.64 15.64 0 0 0 3.474-1.449 24.591 24.591 0 0 0 5.607-4.396l-6.186-4.975a17.343 17.343 0 0 1-3.337 2.442c-.994.58-2.074.998-3.2 1.236l3.642 7.142Z" fill="#BBD3D5" style="mix-blend-mode:screen" opacity=".2"/><path d="M164.786 79.177c-10.407 6.014-18.833 20.65-18.833 32.676 0 12.026 8.426 16.895 18.833 10.882 10.407-6.014 18.833-20.634 18.833-32.66 0-7.525-3.307-12.21-8.304-13.263a15.339 15.339 0 0 0-10.529 2.365Zm0 38.933c-8.182 4.731-14.826.885-14.826-8.577s6.644-20.985 14.826-25.716c8.182-4.731 14.825-.9 14.825 8.577 0 9.478-6.643 20.97-14.825 25.67v.046Z" fill="#EAE6DF"/><path d="M155.507 91.799c-4.754 4.761-7.786 14.132-7.771 19.199.016 5.067 4.663 8.44 7.771 9.707V91.799Z" fill="#EAE6DF"/><path opacity=".6" d="m150.236 95.462-.64 1.328s.32-.428.792-1.252c7.07-12.026 17.599-19.947 24.912-18.695-9.873-1.786-20.082 9.02-25.064 18.619Z" fill="url(#f)"/><path d="m130.061 85.007-.213-.122a1.778 1.778 0 0 1-.838-1.328v-10.47c0-.472.381-.625.838-.35l.213.122 1.326 5.784-1.326 6.364Z" fill="#423E39"/><path d="m185.342 53.035-55.28 31.958V72.845l55.28-31.974v12.164Z" fill="#4C463F"/><path d="m138.488 76.72 7.009-4.044v-5.25l-7.009 4.06v5.234Z" fill="#97C372"/><path opacity=".7" d="m145.497 67.426-.411.244v4.762l-6.598 3.815v.473l7.009-4.044v-5.25Z" fill="#6F8E53"/><path d="M147.813 66.724a1.192 1.192 0 0 1-.899.763c-.305 0-.411-.335-.229-.763a1.144 1.144 0 0 1 .884-.747c.305 0 .412.335.244.747ZM147.813 69.013a1.19 1.19 0 0 1-.899.763c-.305 0-.411-.335-.229-.763a1.145 1.145 0 0 1 .884-.747c.305 0 .412.335.244.747ZM147.813 71.302a1.191 1.191 0 0 1-.899.763c-.305 0-.411-.335-.229-.763a1.145 1.145 0 0 1 .884-.747c.305 0 .412.335.244.747ZM133.886 73.607a1.176 1.176 0 0 1-.884.763c-.305 0-.412-.35-.229-.763a1.145 1.145 0 0 1 .884-.748c.305 0 .411.336.229.748ZM133.886 75.896a1.177 1.177 0 0 1-.884.763c-.305 0-.412-.35-.229-.763a1.144 1.144 0 0 1 .884-.748c.305 0 .411.336.229.748ZM133.886 78.185a1.176 1.176 0 0 1-.884.763c-.305 0-.412-.35-.229-.763a1.145 1.145 0 0 1 .884-.748c.305 0 .411.336.229.748ZM133.886 80.474a1.176 1.176 0 0 1-.884.763c-.305 0-.412-.35-.229-.763a1.144 1.144 0 0 1 .884-.747c.305 0 .411.335.229.747Z" fill="#60574F"/><path d="M135.806 72.157a.876.876 0 0 1-.426.671c-.244.138-.427 0-.427-.168a.872.872 0 0 1 .427-.686c.228-.138.426-.046.426.183Z" fill="#423E39"/><path d="M135.637 72.28a.586.586 0 0 1-.259.427c-.153 0-.274 0-.274-.122a.565.565 0 0 1 .274-.412c.137-.107.259-.061.259.106Z" fill="#97C372"/><path d="M137.42 71.227a.915.915 0 0 1-.427.671c-.244.137-.427 0-.427-.183a.867.867 0 0 1 .427-.672c.229-.137.427-.06.427.184Z" fill="#423E39"/><path d="M137.252 71.317a.53.53 0 0 1-.259.412c-.152.092-.274 0-.274-.106a.542.542 0 0 1 .274-.413c.137-.091.259-.03.259.107Z" fill="#97C372"/><path d="M135.806 74.538a.905.905 0 0 1-.426.687c-.244.137-.427 0-.427-.183a.827.827 0 0 1 .427-.672c.228-.137.426-.06.426.168Z" fill="#423E39"/><path opacity=".5" d="M135.637 74.645a.588.588 0 0 1-.259.412c-.153.076-.274 0-.274-.107a.557.557 0 0 1 .274-.427c.137-.077.259-.03.259.122Z" fill="#455B2F"/><path d="M137.42 73.607a.92.92 0 0 1-.427.687c-.244.137-.427 0-.427-.183a.879.879 0 0 1 .427-.687c.229-.137.427-.046.427.183Z" fill="#423E39"/><path opacity=".5" d="M137.252 73.714a.58.58 0 0 1-.259.412c-.152.076-.274 0-.274-.122a.565.565 0 0 1 .274-.412c.137-.076.259-.03.259.122Z" fill="#455B2F"/><path d="M135.806 76.935a.913.913 0 0 1-.426.671c-.244.137-.427 0-.427-.183a.878.878 0 0 1 .427-.672c.228-.137.426-.06.426.184Z" fill="#423E39"/><path opacity=".5" d="M135.637 77.026a.542.542 0 0 1-.259.412c-.153.092-.274 0-.274-.107a.52.52 0 0 1 .274-.412c.137-.06.259-.06.259.107Z" fill="#455B2F"/><path d="M137.42 76.003a.914.914 0 0 1-.427.671c-.244.138-.427 0-.427-.183a.867.867 0 0 1 .427-.671c.229-.138.427-.061.427.183Z" fill="#423E39"/><path opacity=".5" d="M137.252 76.094a.567.567 0 0 1-.259.412c-.152.092-.274 0-.274-.106a.52.52 0 0 1 .274-.413c.137-.091.259-.045.259.107Z" fill="#455B2F"/><path d="M135.806 79.315a.876.876 0 0 1-.426.672c-.244.137-.427 0-.427-.184a.878.878 0 0 1 .427-.671c.228-.137.426-.046.426.183Z" fill="#423E39"/><path d="M135.637 79.406a.586.586 0 0 1-.259.427c-.153 0-.274 0-.274-.121a.53.53 0 0 1 .274-.413c.137-.091.259-.03.259.107Z" fill="#97C372"/><path d="M137.42 78.384a.914.914 0 0 1-.427.671c-.244.138-.427 0-.427-.183a.867.867 0 0 1 .427-.671c.229-.138.427-.061.427.183Z" fill="#423E39"/><path opacity=".5" d="M137.252 78.476a.53.53 0 0 1-.259.412c-.152.091-.274 0-.274-.107a.541.541 0 0 1 .274-.412c.137-.092.259.015.259.107Z" fill="#455B2F"/><path style="mix-blend-mode:screen" opacity=".4" d="M135.378 88.228c4.763 0 8.624-3.868 8.624-8.639 0-4.77-3.861-8.638-8.624-8.638s-8.624 3.868-8.624 8.638c0 4.771 3.861 8.639 8.624 8.639Z" fill="url(#g)"/><path style="mix-blend-mode:screen" opacity=".4" d="M144.002 72.401a8.652 8.652 0 0 1-1.447 4.805 8.628 8.628 0 0 1-3.87 3.188 8.61 8.61 0 0 1-9.405-1.87 8.64 8.64 0 0 1-2.361-4.426 8.64 8.64 0 0 1 3.677-8.87 8.615 8.615 0 0 1 4.797-1.45c2.283 0 4.473.909 6.088 2.526a8.632 8.632 0 0 1 2.521 6.097Z" fill="url(#h)"/><path style="mix-blend-mode:screen" opacity=".4" d="M145.604 71.486a8.65 8.65 0 0 1-1.455 4.8 8.625 8.625 0 0 1-8.858 3.67 8.618 8.618 0 0 1-4.415-2.368 8.646 8.646 0 0 1 1.323-13.292 8.617 8.617 0 0 1 4.796-1.448 8.598 8.598 0 0 1 6.093 2.53 8.639 8.639 0 0 1 2.516 6.108Z" fill="url(#i)"/><path d="m154.485 64.969-4.571 2.64v-.183l4.571-2.625v.168Zm-1.63 2.365 2.102-1.22v-.184l-2.194 1.282-.502.962-2.332 1.343v.183l2.423-1.404.503-.962Zm-.092-2.823 2.194-1.267v-.122l-2.102 1.22-.503-.38-2.423 1.388v.183l2.332-1.343.502.32Zm2.819-2.915.229-.122-1.067-.84-4.815 2.747v.184l4.708-2.717.945.748Zm-.091 5.418-.93 1.8-4.571 2.671v.183l4.8-2.762 1.051-2.076-.35.184Zm5.683-7.555-1.63.946v.168l1.722-.992.487-.961 2.331-1.343v-.184l-2.422 1.405-.488.961Zm-1.524-1.77-.99 2.045.305-.168.868-1.801 4.19-2.427v-.183l-4.373 2.534Zm1.524 4.578-1.524 1.008v.183l1.524-.947.488.382 2.422-1.389v-.183l-2.331 1.343-.579-.397Zm-2.301 2.656-.183.122 1.006.84 4.297-2.458v-.183l-4.19 2.427-.93-.748Zm.579-2.9 4.571-2.64V59.2l-4.571 2.64v.183Z" fill="#60574F"/><path d="M158.905 60.635a1.523 1.523 0 0 0-1.524.153 4.767 4.767 0 0 0-2.179 3.754 1.528 1.528 0 0 0 .625 1.404l2.133 1.236 3.048-5.31-2.103-1.237Z" fill="url(#j)"/><path d="M157.336 65.778c0 1.389.96 1.954 2.164 1.251a4.824 4.824 0 0 0 2.163-3.754c0-1.389-.975-1.953-2.163-1.251a4.754 4.754 0 0 0-2.164 3.754Z" fill="#E6E2DB"/><path opacity=".8" d="m159.727 63.749-.153.091v-1.572l.153-.091v1.572Z" fill="#60574F"/><path d="M157.549 58.895a1.215 1.215 0 0 1-.564.9c-.32.183-.579.076-.579-.244a1.175 1.175 0 0 1 .579-.9c.305-.107.564-.107.564.244Z" fill="#423E39"/><path d="M157.336 59.017a.8.8 0 0 1-.351.565c-.198.107-.35 0-.35-.153a.746.746 0 0 1 .35-.565c.183-.106.351-.045.351.153Z" fill="#ED6552"/><path style="mix-blend-mode:screen" opacity=".4" d="M168.206 61.886c1.469-6.209-2.366-12.434-8.564-13.905-6.199-1.471-12.414 2.37-13.883 8.578-1.469 6.209 2.366 12.434 8.564 13.906 6.199 1.47 12.414-2.37 13.883-8.579Z" fill="url(#k)"/><path d="m142.891 31.347 22.626 13.08a1.236 1.236 0 0 0 1.128 0l9.858-5.724a.355.355 0 0 0 .164-.528.346.346 0 0 0-.164-.128l-22.627-13.08-10.985 6.38Zm33.323 6.883c.167.107.167.26 0 .351l-9.828 5.693a.716.716 0 0 1-.61 0L143.287 31.27l10.437-6.105 22.49 13.064Z" fill="#E6E2DB"/><path opacity=".7" d="m175.071 38.017-9.431 5.463-2.408-1.388 9.447-5.464 2.392 1.389Z" fill="#E6E2DB"/><path d="m172.68 36.628 1.752 1.77.64-.381-2.392-1.39Z" fill="#D1CDC1"/><path d="M182.506 44.655a.884.884 0 0 0-.518.138 2.21 2.21 0 0 0-.883 1.114c-.29.748-.122 1.373.38 1.42a.976.976 0 0 0 .519-.138c.409-.274.724-.668.898-1.13.305-.732.122-1.373-.396-1.404Z" fill="#60574F"/><path d="M182.704 44.991a.425.425 0 0 0-.198 0 .7.7 0 0 0-.427.122 1.794 1.794 0 0 0-.731.916c-.214.519-.138.961.137 1.114l.335.199 1.219-2.091-.335-.26Z" fill="#D8A750"/><path d="M182.857 45.129a.73.73 0 0 0-.442.122 1.802 1.802 0 0 0-.732.916c-.244.61-.091 1.129.32 1.175.15.006.298-.031.427-.107.348-.222.611-.556.746-.946.244-.61.092-1.13-.319-1.16Z" fill="#EDB65F"/><path d="M182.506 49.386a.731.731 0 0 0-.411.107c-.33.208-.581.52-.716.885-.229.596-.076 1.084.305 1.13a.82.82 0 0 0 .411-.107c.331-.214.582-.53.716-.9.168-.596.031-1.115-.305-1.115Z" fill="#60574F"/><path d="M182.584 49.63a.26.26 0 0 0-.153 0 .563.563 0 0 0-.335.092c-.27.175-.478.432-.594.733-.153.412-.107.763.106.9l.275.153.975-1.679-.274-.198Z" fill="#828180"/><path d="M182.706 49.752a.55.55 0 0 0-.336.077 1.422 1.422 0 0 0-.594.748c-.183.488-.076.9.259.93a.743.743 0 0 0 .335-.091c.279-.173.489-.437.595-.748.182-.488.076-.9-.259-.916ZM174.92 48.639v8.5l4.251-2.457v-8.5l-4.251 2.457Z" fill="#8F8E8D"/><path d="M178.439 46.594v7.661l.732.427v-8.5l-.732.412Z" fill="#828180"/><path d="m178.44 54.255-3.52 2.045v.84l4.251-2.458-.731-.427Z" fill="#A5A5A5"/><path d="m176.793 50.867-.67.397v2.503l.67-.397v-2.503ZM177.082 54.195v.35l.67-.396.016-.351-.686.397Z" fill="#999898"/><path d="m176.793 53.248-.67.382.96.564.686-.397-.976-.549Z" fill="#A5A5A5"/><path d="M176.123 53.63v.9l.96.016v-.351l-.96-.565Z" fill="#828180"/><path d="M176.625 53.34v-2.107l-.32.184v2.12l.685.398.32-.183-.685-.413Z" fill="#4C463F"/><path d="m73.808 199.303-41.14-23.793v-7.921l41.14 23.793v7.921Z" fill="#D1CDC1"/><path d="m129.073 167.345-55.264 31.958v-7.921l55.264-31.958v7.921Z" fill="#E6E2DB"/><path d="m73.808 191.382-17.873-6.975-23.267-16.818 55.264-31.958 41.14 23.793-55.264 31.958Z" fill="#D1CDC1"/><path d="m73.808 190.649-41.14-23.793V78.918l41.14 23.793v87.938Z" fill="#D1CDC1"/><path d="m129.073 158.676-55.264 31.973v-87.938l55.264-31.974v87.939Z" fill="#E6E2DB"/><path d="m73.808 102.711-41.14-23.793L87.932 46.96l41.14 23.778-55.264 31.973Z" fill="#F5F2EE"/><path opacity=".5" d="M70.426 103.23 37.59 84.244a2.07 2.07 0 0 0-2.767.79 2.079 2.079 0 0 0-.28 1.011v73.806a3.21 3.21 0 0 0 1.524 2.762l32.835 18.986a2.029 2.029 0 0 0 2.088 0 2.077 2.077 0 0 0 1.051-1.816v-73.791a3.18 3.18 0 0 0-1.615-2.762Zm.853 76.553a1.357 1.357 0 0 1-.685 1.19 1.307 1.307 0 0 1-1.372 0l-32.805-18.985a2.473 2.473 0 0 1-1.234-2.137V86.015a1.344 1.344 0 0 1 .686-1.19 1.37 1.37 0 0 1 1.371 0l32.836 19a2.462 2.462 0 0 1 1.234 2.137l-.03 73.821Z" fill="url(#l)"/><path d="M117.658 138.776c7.943-13.781 7.944-28.678 0-33.271-7.943-4.594-20.823 2.854-28.767 16.636-7.943 13.782-7.944 28.678 0 33.271 7.944 4.594 20.823-2.854 28.767-16.636Z" fill="#EAE6DF"/><path d="m117.796 105.595-1.067-.625c-3.687-2.213-8.822-1.939-14.505 1.358-11.23 6.486-20.28 22.297-20.28 35.285 0 6.41 2.224 10.943 5.82 13.11l1.066.61c-3.61-2.167-5.82-6.699-5.82-13.109 0-12.988 9.142-28.784 20.326-35.286 5.622-3.281 10.772-3.556 14.46-1.343Z" fill="url(#m)"/><path opacity=".5" d="M117.343 138.592c7.27-12.613 7.268-26.248-.005-30.454-7.273-4.206-19.063 2.609-26.334 15.223-7.27 12.614-7.268 26.249.005 30.455 7.273 4.206 19.063-2.61 26.334-15.224Z" fill="#D1CDC1"/><path d="m108.776 116.172-3.977 2.305a32.225 32.225 0 0 0-11.169 18.955v4.579c-.106 9.614 6.506 13.735 14.795 9.05 8.289-4.686 15.085-16.178 15.237-25.793.152-9.614-6.674-13.72-14.886-9.096Z" fill="#939393"/><path d="M118.406 108.403c-3.428-2.045-8.182-1.801-13.438 1.252-10.407 6.013-18.833 20.634-18.833 32.66 0 5.937 2.057 10.134 5.394 12.209l3.565 2.076c-6.323-23.213 1.051-39.375 26.878-46.06l-3.566-2.137Z" fill="url(#n)"/><path d="m108.776 116.172-3.977 2.305a32.225 32.225 0 0 0-11.169 18.955v4.579c-.106 9.614 6.506 13.735 14.795 9.05 8.289-4.686 15.085-16.178 15.237-25.793.152-9.614-6.674-13.72-14.886-9.096Z" fill="url(#o)"/><path d="M93.585 137.431c-.091 7.067 4.77 10.027 10.864 6.639a24.248 24.248 0 0 0 7.85-8.129 24.302 24.302 0 0 0 3.319-10.811c.091-7.066-4.769-10.042-10.864-6.654a24.238 24.238 0 0 0-7.855 8.136 24.273 24.273 0 0 0-3.314 10.819Z" fill="url(#p)"/><path d="M104.874 152.449a17.238 17.238 0 0 0 3.474-1.45 25.469 25.469 0 0 0 5.592-4.395l-6.095-4.991a17.074 17.074 0 0 1-3.398 2.396 11.455 11.455 0 0 1-3.215 1.237l3.642 7.203Z" fill="#BBD3D5" style="mix-blend-mode:screen" opacity=".2"/><path d="M108.532 111.716c-10.407 6.013-18.833 20.634-18.833 32.66 0 12.026 8.426 16.91 18.833 10.897 10.407-6.013 18.833-20.649 18.833-32.675 0-7.509-3.291-12.21-8.304-13.248a15.216 15.216 0 0 0-10.529 2.366Zm0 38.917c-8.182 4.732-14.825.901-14.825-8.577 0-9.477 6.643-20.969 14.825-25.701 8.182-4.731 14.825-.9 14.825 8.562 0 9.463-6.643 20.985-14.825 25.716Z" fill="#EAE6DF"/><path d="M99.253 124.337c-4.738 4.762-7.77 14.117-7.77 19.184s4.662 8.44 7.77 9.706v-28.89Z" fill="#EAE6DF"/><path opacity=".6" d="m93.997 127.985-.655 1.343s.335-.443.792-1.267c7.07-12.026 17.599-19.932 24.928-18.68-9.889-1.801-20.098 9.004-25.065 18.604Z" fill="url(#q)"/><path d="m73.807 117.546-.213-.123a1.78 1.78 0 0 1-.838-1.343v-10.469c0-.458.38-.626.838-.351l.213.122 1.341 5.784-1.34 6.38Z" fill="#423E39"/><path d="m129.088 85.557-55.28 31.973v-12.148l55.28-31.974v12.149Z" fill="#4C463F"/><path d="m82.248 109.258 7.009-4.044-.015-5.25-6.994 4.044v5.25Z" fill="#97C372"/><path opacity=".7" d="m89.242 99.964-.412.244v4.762l-6.582 3.815v.473l7.009-4.044-.015-5.25Z" fill="#6F8E53"/><path d="M91.559 99.263a1.19 1.19 0 0 1-.899.747c-.305 0-.411-.336-.228-.748a1.175 1.175 0 0 1 .883-.747c.305 0 .412.335.244.748ZM91.559 101.552a1.193 1.193 0 0 1-.899.747c-.305 0-.411-.335-.228-.747a1.173 1.173 0 0 1 .883-.748c.305 0 .412.335.244.748ZM91.559 103.841a1.193 1.193 0 0 1-.899.747c-.305 0-.411-.335-.228-.747a1.173 1.173 0 0 1 .883-.748c.305 0 .412.336.244.748ZM77.647 106.145a1.187 1.187 0 0 1-.899.748c-.305 0-.411-.336-.229-.748a1.16 1.16 0 0 1 .884-.763c.305 0 .411.336.244.763ZM77.647 108.434a1.187 1.187 0 0 1-.899.748c-.305 0-.411-.336-.229-.748a1.192 1.192 0 0 1 .884-.763c.305 0 .411.351.244.763ZM77.647 110.724a1.187 1.187 0 0 1-.899.748c-.305 0-.411-.336-.229-.748a1.192 1.192 0 0 1 .884-.763c.305 0 .411.351.244.763ZM77.647 113.013a1.187 1.187 0 0 1-.899.748c-.305 0-.411-.336-.229-.748a1.19 1.19 0 0 1 .884-.763c.305 0 .411.351.244.763Z" fill="#60574F"/><path d="M79.552 104.695a.921.921 0 0 1-.426.672c-.244.137-.427 0-.427-.183a.874.874 0 0 1 .427-.672c.228-.183.426-.061.426.183Z" fill="#423E39"/><path d="M79.385 104.787a.565.565 0 0 1-.259.412c-.152.091-.259 0-.259-.107a.506.506 0 0 1 .26-.412c.136-.092.258-.046.258.107Z" fill="#97C372"/><path d="M81.166 103.749a.915.915 0 0 1-.427.687c-.244.137-.427 0-.427-.183a.855.855 0 0 1 .427-.672c.229-.137.427-.061.427.168Z" fill="#423E39"/><path d="M80.998 103.856a.579.579 0 0 1-.259.412c-.152.076-.274 0-.274-.107a.564.564 0 0 1 .274-.427c.137-.077.26-.031.26.122Z" fill="#97C372"/><path d="M79.552 107.076a.916.916 0 0 1-.426.672c-.244.137-.427 0-.427-.183a.874.874 0 0 1 .427-.672c.228-.137.426-.061.426.183Z" fill="#423E39"/><path opacity=".5" d="M79.385 107.168a.53.53 0 0 1-.259.412c-.152.092-.259 0-.259-.107a.522.522 0 0 1 .26-.412c.136-.091.258-.03.258.107Z" fill="#455B2F"/><path d="M81.166 106.145a.921.921 0 0 1-.427.672c-.244.137-.427 0-.427-.184a.873.873 0 0 1 .427-.671c.229-.107.427-.107.427.183Z" fill="#423E39"/><path opacity=".5" d="M80.998 106.237a.536.536 0 0 1-.259.412c-.152.091-.274 0-.274-.107a.521.521 0 0 1 .274-.412c.137-.092.26-.046.26.107Z" fill="#455B2F"/><path d="M79.552 109.457a.92.92 0 0 1-.426.686c-.244.138-.427 0-.427-.183a.875.875 0 0 1 .427-.686c.228-.138.426-.046.426.183Z" fill="#423E39"/><path opacity=".5" d="M79.385 109.549a.58.58 0 0 1-.259.427c-.152 0-.259 0-.259-.122a.533.533 0 0 1 .26-.412c.136-.076.258-.03.258.107Z" fill="#455B2F"/><path d="M81.166 108.526a.89.89 0 0 1-.427.672c-.244.137-.427 0-.427-.168a.867.867 0 0 1 .427-.687c.229-.138.427-.046.427.183Z" fill="#423E39"/><path opacity=".5" d="M80.998 108.617a.58.58 0 0 1-.259.428c-.152 0-.274 0-.274-.123a.56.56 0 0 1 .274-.412c.137-.076.26-.03.26.107Z" fill="#455B2F"/><path d="M79.552 111.853a.917.917 0 0 1-.426.671c-.244.137-.427 0-.427-.183a.859.859 0 0 1 .427-.672c.228-.137.426-.061.426.184Z" fill="#423E39"/><path d="M79.385 111.959a.564.564 0 0 1-.259.413c-.152.091-.259 0-.259-.107a.547.547 0 0 1 .26-.428c.136-.091.258-.045.258.122Z" fill="#97C372"/><path d="M81.166 110.907a.915.915 0 0 1-.427.687c-.244.137-.427 0-.427-.183a.824.824 0 0 1 .427-.672c.229-.137.427-.061.427.168Z" fill="#423E39"/><path opacity=".5" d="M80.998 111.014a.579.579 0 0 1-.259.412c-.152 0-.274 0-.274-.107a.564.564 0 0 1 .274-.427c.137-.077.26-.031.26.122Z" fill="#455B2F"/><path style="mix-blend-mode:screen" opacity=".4" d="M87.748 112.127a8.647 8.647 0 0 1-5.327 7.983 8.613 8.613 0 0 1-9.4-1.88 8.651 8.651 0 0 1-1.86-9.419 8.633 8.633 0 0 1 7.978-5.322 8.603 8.603 0 0 1 7.958 5.334 8.636 8.636 0 0 1 .651 3.304Z" fill="url(#r)"/><path style="mix-blend-mode:screen" opacity=".4" d="M79.124 113.562c4.763 0 8.624-3.867 8.624-8.638 0-4.77-3.861-8.638-8.624-8.638s-8.624 3.868-8.624 8.638c0 4.771 3.861 8.638 8.624 8.638Z" fill="url(#s)"/><path style="mix-blend-mode:screen" opacity=".4" d="M89.35 104.009a8.645 8.645 0 0 1-5.317 7.993 8.615 8.615 0 0 1-9.406-1.87 8.644 8.644 0 0 1-1.866-9.421 8.636 8.636 0 0 1 3.183-3.876 8.613 8.613 0 0 1 10.88 1.08 8.646 8.646 0 0 1 2.526 6.094Z" fill="url(#t)"/><path d="m98.231 97.507-4.57 2.625v-.183l4.57-2.625v.183Zm-1.63 2.366 2.103-1.221v-.183l-2.195 1.267-.487.961-2.347 1.358v.168l2.438-1.389.488-.961Zm-.092-2.824 2.195-1.282V95.6L96.6 96.82l-.488-.396-2.438 1.404v.183l2.347-1.358.487.396Zm2.82-2.945.228-.137-1.052-.825-4.83 2.748v.183l4.709-2.717.944.748Zm-.092 5.403-.93 1.77-4.57 2.671v.183l4.799-2.778 1.051-2.06-.35.214Zm5.714-7.525-1.631.947v.183l1.722-.992.488-.962 2.331-1.358v-.168l-2.423 1.389-.487.962Zm-1.524-1.77-.975 2.06.289-.183.869-1.8 4.236-2.427v-.183l-4.419 2.533Zm1.524 4.579-1.722.992v.183l1.63-.946.488.396 2.422-1.404v-.183l-2.331 1.359-.487-.397Zm-2.286 2.67-.198.107 1.006.84 4.373-2.442v-.183l-4.175 2.442-1.006-.763Zm.61-2.9 4.571-2.624v-.183l-4.571 2.625v.183Z" fill="#60574F"/><path d="M102.649 93.173a1.519 1.519 0 0 0-1.523.138 4.786 4.786 0 0 0-2.18 3.77 1.529 1.529 0 0 0 .626 1.388l2.179 1.282 3.047-5.296-2.149-1.282Z" fill="url(#u)"/><path d="M101.08 98.302c0 1.388.96 1.953 2.164 1.266a4.804 4.804 0 0 0 2.163-3.77c0-1.388-.96-1.938-2.163-1.25a4.772 4.772 0 0 0-2.164 3.754Z" fill="#E6E2DB"/><path opacity=".8" d="m103.488 96.286-.168.092v-1.572l.168-.107v1.587Z" fill="#60574F"/><path d="M101.295 91.418a1.172 1.172 0 0 1-.564.915c-.32.183-.579 0-.579-.244a1.21 1.21 0 0 1 .579-.916c.32-.183.564-.076.564.245Z" fill="#423E39"/><path d="M101.082 91.555a.719.719 0 0 1-.351.55c-.198.106-.35 0-.35-.153a.717.717 0 0 1 .35-.55c.198-.121.351-.045.351.153Z" fill="#ED6552"/><path style="mix-blend-mode:screen" opacity=".4" d="M111.962 94.38c1.448-6.215-2.407-12.427-8.61-13.878-6.204-1.45-12.407 2.41-13.855 8.624-1.448 6.214 2.407 12.427 8.61 13.877 6.204 1.451 12.407-2.41 13.855-8.624Z" fill="url(#v)"/><path d="m86.652 63.87 22.627 13.08a1.236 1.236 0 0 0 1.128 0l9.843-5.678a.356.356 0 0 0 .226-.328.354.354 0 0 0-.226-.329L97.623 57.536l-10.97 6.334Z" fill="#D1CDC1"/><path d="m97.562 57.552-10.91 6.303 10.91 6.318V57.552Z" fill="#E6E2DB" opacity=".5"/><path d="m91.223 66.51 18.055 10.44a1.236 1.236 0 0 0 1.128 0l2.057-1.19-4.571-7.036-10.209-5.907-6.46 3.694Z" fill="#E6E2DB"/><path opacity=".5" d="m107.847 68.724-6.4 3.708 7.832 4.579a1.233 1.233 0 0 0 1.128 0l2.057-1.19-4.617-7.097Z" fill="#D1CDC1"/><path d="M126.268 77.179a1.018 1.018 0 0 0-.518.137 2.29 2.29 0 0 0-.884 1.114c-.289.748-.122 1.374.381 1.42a.85.85 0 0 0 .518-.138c.414-.27.729-.665.899-1.13.29-.732.107-1.357-.396-1.403Z" fill="#60574F"/><path d="M126.451 77.514a.413.413 0 0 0-.183 0 .702.702 0 0 0-.442.107 1.847 1.847 0 0 0-.731.931c-.198.504-.137.961.137 1.114l.335.199 1.219-2.107-.335-.244Z" fill="#D8A750"/><path d="M126.603 77.667a.639.639 0 0 0-.427.106 1.787 1.787 0 0 0-.747.931c-.243.61-.091 1.13.32 1.176.151.002.3-.04.427-.123.348-.215.612-.544.747-.93.243-.61.091-1.13-.32-1.16Z" fill="#EDB65F"/><path d="M126.13 81.894a.64.64 0 0 0-.412.123 1.639 1.639 0 0 0-.701.87c-.228.595-.091 1.098.29 1.129a.697.697 0 0 0 .411-.107c.331-.214.583-.53.716-.9.29-.58.153-1.084-.304-1.115Z" fill="#60574F"/><path d="M126.329 82.169a.26.26 0 0 0-.153 0 .487.487 0 0 0-.335.091c-.27.175-.478.432-.594.733-.153.412-.092.763.122.885l.259.153.975-1.664-.274-.198Z" fill="#828180"/><path d="M126.451 82.276a.566.566 0 0 0-.336.092c-.27.175-.478.431-.594.732-.183.489 0 .9.259.931a.47.47 0 0 0 .335-.092c.271-.175.479-.431.595-.732.198-.488.076-.9-.259-.931ZM118.666 81.161v8.516l4.251-2.457v-8.516l-4.251 2.457Z" fill="#8F8E8D"/><path d="M122.186 79.131v7.662l.731.427v-8.516l-.731.427Z" fill="#828180"/><path d="m122.186 86.793-3.52 2.03v.854l4.251-2.457-.731-.427Z" fill="#A5A5A5"/><path d="m120.54 83.405-.671.382v2.503l.671-.382v-2.503ZM120.828 86.717v.351l.686-.381v-.367l-.686.397Z" fill="#999898"/><path d="m120.555 85.77-.686.397.96.55.686-.397-.96-.55Z" fill="#A5A5A5"/><path d="M119.869 86.167v.9h.96v-.35l-.96-.55Z" fill="#828180"/><path d="M120.371 85.877v-2.121l-.32.198v2.106l.685.412.32-.198-.685-.397Z" fill="#4C463F"/><path d="m82.004 49.387 10.437-6.09 5.73 14.835-10.438 6.09-5.73-14.835Z" fill="#FAF7F3"/><path d="m82.34 44.35 10.421-6.074-.32 5.021-10.437 6.09.335-5.036ZM73.99 30.005l10.438-6.074.502-.046-10.437 6.09-.503.03Z" fill="#E6E2DB"/><path d="m74.494 29.974 10.437-6.09.366.962-10.422 6.074-.38-.946Z" fill="#F5F2EE"/><path d="m77.174 30.737 10.437-6.074 5.15 13.614L82.34 44.35l-5.165-13.614Z" fill="#FAF7F3"/><path d="m74.873 30.92 10.422-6.074 2.316-.183-10.437 6.074-2.301.183Z" fill="#E6E2DB"/><path d="M77.175 30.738 82.34 44.35l-.335 5.037 5.729 14.834-.67-.412L73.99 30.005l.503-.03.381.946 2.3-.183Z" fill="#D1CDC1"/><path d="M32.668 78.918v87.938l.488.275-.488.458v7.921l41.14 23.793v-7.921l-1.31-.763 1.31.03v-87.938l-41.14-23.793Z" fill="#D1CDC1" style="mix-blend-mode:multiply" opacity=".3"/><path d="M83.178 162.874c.143.2.218.441.213.687a3.49 3.49 0 0 1-1.707 2.686l-6.551 3.8a1.522 1.522 0 0 1-1.006.244c-1.524 0 .96 1.175 1.615.794l6.902-4.091a5.388 5.388 0 0 0 1.996-3.449c0-.564-2.163-2.091-1.462-.671ZM69.177 169.192l.579 6.868 4.388 12.744 1.615 23.228a2.401 2.401 0 0 1-2.85.336l-7.968-4.579a2.331 2.331 0 0 1-1.173-2.03v-19.535c.017-2.17.657-4.289 1.843-6.104l2.91-4.182v-6.959l.656.213Z" fill="#D1CDC1"/><path d="M74.082 202.157v-3.846a44.988 44.988 0 0 0-.366-7.157l-.442-.26a11.25 11.25 0 0 0-4.007-4.578 16.527 16.527 0 0 0-5.196.702l-.274-.153v10.683a18.276 18.276 0 0 1 10.285 4.609Z" fill="#C03926"/><path d="M74.052 211.818v-10.867l-.259-.152a13.963 13.963 0 0 0-9.782-4.182l-.259-.168v9.157a2.335 2.335 0 0 0 1.173 2.03l7.97 4.579a2.122 2.122 0 0 0 1.965.152.658.658 0 0 1-.711-.295.672.672 0 0 1-.097-.254Z" fill="#DD9640"/><path style="mix-blend-mode:multiply" opacity=".6" d="M65.046 207.484a2.067 2.067 0 0 1-1.02-1.801v-19.535c0-2.133.624-4.219 1.797-5.998l3.048-3.968a52.448 52.448 0 0 1 4.952 22.892v11.63a1.097 1.097 0 0 1-1.63.931l-7.147-4.151Z" fill="url(#w)"/><path d="M88.709 164.781 69.16 176.167a46.212 46.212 0 0 1 4.937 22.144v13.507a.688.688 0 0 0 .684.668c.118 0 .234-.03.337-.088l16.76-9.737a3.616 3.616 0 0 0 1.798-3.052v-12.607a52.925 52.925 0 0 0-3.321-18.573l-1.646-3.648Z" fill="url(#x)"/><path d="M69.176 169.192v6.975l19.549-11.385v-6.96l-19.55 11.37Zm12.997-2.655-6.552 3.785c-.945.549-1.707.229-1.707-.718a3.526 3.526 0 0 1 1.707-2.701l6.552-3.785c.945-.549 1.706-.229 1.706.717a3.559 3.559 0 0 1-1.706 2.702Z" fill="#E6E2DB"/><path d="m68.564 168.841 19.55-11.37.594.351-19.534 11.37-.61-.351Z" fill="#F5F2EE"/><path d="M95.657 169.085a112.852 112.852 0 0 0-24.028 24.999v13.461a382.664 382.664 0 0 1 24.028-32.05v-6.41Z" fill="#D44F3A"/><path d="M95.49 170.596A148.775 148.775 0 0 0 71.385 206.4l.335 7.203 7.177 5.846c5.698-9.249 22.352-6.883 16.76-33.134l-.167-15.719Z" fill="#F4BC69"/><path d="M95.23 183.507a8.188 8.188 0 0 0-5.653 1.267 22.308 22.308 0 0 0-7.138 7.551 22.353 22.353 0 0 0-2.949 9.97c0 6.455 4.571 9.065 10.087 5.845a22.35 22.35 0 0 0 7.143-7.55 22.39 22.39 0 0 0 2.96-9.971c0-4.029-1.768-6.562-4.45-7.112Z" fill="#F5F2EE"/><path d="M94.681 184.667a7.486 7.486 0 0 0-5.21 1.16 20.274 20.274 0 0 0-6.46 6.836 20.311 20.311 0 0 0-2.683 9.021c0 2.869.975 5.006 2.743 6.105a4.816 4.816 0 0 0 2.468.625 8.492 8.492 0 0 0 4.145-1.266 20.303 20.303 0 0 0 9.142-15.857c0-3.648-1.54-6.074-4.145-6.624Zm-5.12 20.573a4.978 4.978 0 0 1-7.862-1.678 4.997 4.997 0 0 1-.335-3.053 18.608 18.608 0 0 1 2.46-8.285 18.57 18.57 0 0 1 5.936-6.275 7.488 7.488 0 0 1 3.687-1.129c.307-.002.614.029.914.091 2.24.443 3.58 2.61 3.58 5.769a18.595 18.595 0 0 1-8.38 14.56Z" fill="#F4BC69"/><path style="mix-blend-mode:multiply" opacity=".6" d="M73.822 200.249v-3.586a52.585 52.585 0 0 0-4.937-20.481l.868 21.809 4.069 2.258Z" fill="url(#y)"/><path d="m107.451 53.965-3.306-1.907V31.012l3.306 1.907v21.046Z" fill="#D1CDC1"/><path d="m107.451 50.532-3.306-1.908v-6.959l3.306 1.908v6.96Z" fill="#DD9640"/><path d="m107.451 53.966-3.306-1.908v-4.166l3.306 1.907v4.167Z" fill="#C03926"/><path d="m120.783 46.259-13.332 7.707V32.92l13.332-7.707v21.046Z" fill="#E6E2DB"/><path d="m107.451 32.92-3.306-1.908 13.332-7.707 3.306 1.907-13.332 7.708Z" fill="#F5F2EE"/><path d="M123.313 24.8a100.499 100.499 0 0 0-19.153 24.327l1.173 11.965a340.19 340.19 0 0 1 18.544-30.523l-.564-5.77Z" fill="#F4BC69"/><path d="M122.765 25.838c-7.162 9.798-14.232 19.352-18.285 31.15l1.219 8.103 6.933 4.579c4.358-8.745 19.321-8.074 12.083-30.966l-1.95-12.866Z" fill="#D44F3A"/><path d="M104.496 31.927h-.091v.092-.153h.152s-.046.061-.061.061Zm.244.138.229.137-.229-.198s-.031.045.061.06h-.061Zm1.661.9-.229-.137.229.198s.015-.046 0-.06Zm.244.198.243.138-.243-.199s-.016.046 0 .062Zm-.96-.564.243.137-.243-.198s-.016.06 0 .06Zm-.198-.153a1.737 1.737 0 0 0-.275-.183l.244.198s.031.016.031 0v-.015Zm1.752.992h-.122l.091.122v.092-.092s.046-.107.031-.107v-.015Zm-2.682-.198c.01.114.058.222.137.305a1.366 1.366 0 0 0-.137-.29v-.015Zm-.183-.779v-.259.214s-.015.06 0 .06v-.015Zm0 .199a.478.478 0 0 0 0 .29.627.627 0 0 0 0-.244s.016-.03 0-.03v-.016Zm2.865 1.145v.259-.214s.015-.015 0-.03v-.016Zm-.564.93-.244-.091a.565.565 0 0 0 .259.168l-.015-.061v-.016Zm-1.524-.824-.243-.168a.576.576 0 0 0 .243.23s.046-.031.031-.046l-.031-.016Zm2.057.397v.229c0 .061.092-.091.092-.183l-.092-.046Zm-.183.382a.315.315 0 0 1-.167 0h.213c.046 0 0 0-.015.015l-.031-.015Zm-1.371-.489-.213-.076.244.198s.015-.091 0-.106l-.031-.016Zm.503.29-.259-.137.259.198s.046-.03.03-.045l-.03-.016ZM107.131 36.094l-2.621-1.526v-.137l2.621 1.526v.137Zm0 .244-2.621-1.526v.138l2.621 1.526v-.138Zm-.199.29-2.422-1.404v.138l2.422 1.404v-.138Zm-.091.336-2.331-1.312v.137l2.331 1.358v-.183Zm.29.55-2.621-1.527v.138l2.621 1.526v-.138Zm0 .396-2.621-1.526v.138l2.621 1.526v-.138Zm-.351.184-2.27-1.313v.137l2.27 1.313v-.138Zm.351.595-2.621-1.526v.137l2.621 1.526v-.137Zm-.153.305-2.468-1.435v.138l2.468 1.434v-.137Zm-.274.229-2.194-1.267v.137l2.194 1.267v-.137Zm.427.64-2.621-1.525v.137l2.621 1.526v-.137Zm0 .382-2.621-1.526v.138l2.621 1.526v-.138Zm-.153.306-2.468-1.42v.138l2.468 1.419v-.137Zm-.35.198-2.118-1.236v.137l2.118 1.236v-.137Zm.426.626-2.544-1.526v.137l2.544 1.526v-.137Zm-.274.229-2.27-1.374v.138l2.27 1.388v-.152Zm0 .35-2.194-1.266v.137l2.194 1.282v-.152Zm-.762 0-1.432-.839v.153l1.432.824v-.137Z" fill="#D1CDC1" style="mix-blend-mode:multiply"/><path d="M104.434 31.958v.641a1.695 1.695 0 0 0 .685 1.16l1.295.763c.671.382.717-.26.717-.26v-.793l-2.697-1.511Z" fill="#D1CDC1" style="mix-blend-mode:multiply"/><path d="M131.983 26.754h-3.215c2.102 1.22 2.864 9.95 0 11.614.563 1.236 1.691 4.579 2.666 3.632 5.363-5.051 2.636-13.98.549-15.246Z" fill="#D1CDC1"/><path d="M133.659 28.387a57.96 57.96 0 0 0-3.855-7.814 8.022 8.022 0 0 0-1.295-1.649 3.247 3.247 0 0 0-1.371-.763 5.16 5.16 0 0 0-3.185 0c-1.005.336-1.523.885-1.676 1.526-.152.641-.716 2.229-1.021 2.915-1.051 2.946-2.91 4.274-3.657 10.53a85.51 85.51 0 0 0 .244 16.346c.092.977 3.505 2.671 4.343 2.183 11.412-6.609 9.142-5.25 9.812-5.708 1.524-.87 2.819-11.965 2.697-9.92a14.833 14.833 0 0 0-1.036-7.646Zm-1.325 10.316c-.305.481-.738.867-1.25 1.115-.716.87-1.341.412-1.645-.81a18.083 18.083 0 0 1-.701-6.73c0-.519.091-1.053.167-1.602a4.58 4.58 0 0 1 1.311-2.747 1.06 1.06 0 0 1 1.005 0c1.905.671 2.743 7.722 1.113 10.774Z" fill="#D1CDC1"/><path d="M131.603 27.547a1.232 1.232 0 0 0-1.051.122h-.077l-.472.29a.87.87 0 0 1 .762-.091c1.905.717 2.834 7.493 1.204 10.53-.233.484-.597.891-1.052 1.175a1.346 1.346 0 0 1-.304.138 1.923 1.923 0 0 1-.275.091c-.762.168-1.889-3.052-1.6-7.768v.565c-.304 4.96.869 8.348 1.981 8.165.121-.012.239-.043.351-.092.128-.054.25-.12.365-.198a3.98 3.98 0 0 0 1.311-1.435c1.98-3.388 1.005-10.668-1.143-11.492Z" fill="url(#z)"/><path d="M131.967 38.46c-.232.483-.597.89-1.051 1.175a1.329 1.329 0 0 1-.305.138l.427.961c.128-.054.25-.12.366-.198a3.987 3.987 0 0 0 1.31-1.435l-.747-.641Z" fill="#F5F2EE" style="mix-blend-mode:screen" opacity=".6"/><path d="M134.115 28.692a34.875 34.875 0 0 0-5.028-9.157c.168 1.313-1.524 2.32-3.992 2.213-.128.918-.358 1.82-.686 2.686-1.676 4.716-4.464 7.28-2.559 26.693 0 .366.335.504.67.305l10.239-5.921c.307-.205.529-.514.625-.87 1.569-5.937 2.362-12.042.731-15.949Zm-2.712 11.843a1.52 1.52 0 0 1-.716.29c-1.265.214-2.59-4.136-1.783-10.149a4.256 4.256 0 0 1 1.646-3.052 1.232 1.232 0 0 1 1.051-.122c2.453 1.007 3.444 10.729-.198 13.033Z" fill="#E6E2DB"/><path d="M122.338 18.543v1.038a1.648 1.648 0 0 0 .975 1.358 5.186 5.186 0 0 0 4.739 0 1.648 1.648 0 0 0 .975-1.389v-1.037l-6.689.03Z" fill="url(#A)"/><path d="M128.051 19.901a5.276 5.276 0 0 1-4.738 0 1.523 1.523 0 0 1-.86-1.373 1.528 1.528 0 0 1 .86-1.374 5.276 5.276 0 0 1 4.738 0 1.523 1.523 0 0 1 .86 1.374 1.529 1.529 0 0 1-.86 1.373Z" fill="#F5F2EE"/><path opacity=".4" d="M125.096 21.763c-.564 4.426-7.268 8.378-3.245 29.379-.303-4.889-.339-9.79-.107-14.682a56.012 56.012 0 0 1 2.438-10.5c1.158-3.404.914-4.197.914-4.197Z" fill="#E6E2DB"/><path d="m129.179 18.589-1.081-5.128h-4.709l-1.112 5.128a1.607 1.607 0 0 0 .96 1.648 5.358 5.358 0 0 0 4.906 0 1.633 1.633 0 0 0 1.036-1.648Z" fill="url(#B)"/><path d="M127.352 14.605a3.665 3.665 0 0 1-3.352 0c-.914-.55-.899-1.419 0-1.953a3.714 3.714 0 0 1 3.352 0 1.017 1.017 0 0 1 .719.977 1.026 1.026 0 0 1-.719.976Z" fill="#FFCB78"/><path d="M122.581 33.79c-1.158 5.616-.228 12.713.686 13.43.914.717 4.434-.733 7.115-2.717a1.52 1.52 0 0 0 .61-1.251v-.733a.857.857 0 0 0-.762-.778 3.042 3.042 0 0 1-1.966-1.862c-.731-1.847-.67-6.471-.518-8.455 0-.55.168-1.786-.685-2.259-.854-.473-3.566.214-4.48 4.625Z" fill="#F5F2EE"/><path d="M127.656 34.934c0-1.374 0-2.671.092-3.51a2.22 2.22 0 0 1 0-.306c-.823 1.069-4.571 6.105-5.699 7.631-.031 1.293.01 2.588.122 3.877a75.489 75.489 0 0 1 5.485-7.692Z" fill="#D44F3A"/><path d="M130.978 42.519a.857.857 0 0 0-.762-.779 3.06 3.06 0 0 1-1.966-1.862 22.008 22.008 0 0 1-.594-6.745c-2.636 3.998-5.516 9.157-5.516 9.157a10.702 10.702 0 0 0 1.128 4.975c1.082.855 4.434-.732 7.116-2.716a1.528 1.528 0 0 0 .609-1.252l-.015-.778Z" fill="#F4BC69"/><path d="M133.66 36.094a4.365 4.365 0 0 0-3.047.687 12.087 12.087 0 0 0-5.47 9.462c0 3.495 2.453 4.9 5.47 3.16a12.085 12.085 0 0 0 5.454-9.478c0-2.167-.96-3.54-2.407-3.83Z" fill="#F5F2EE"/><path d="M133.355 36.72a4.001 4.001 0 0 0-2.803.626 10.923 10.923 0 0 0-4.937 8.562 3.522 3.522 0 0 0 1.524 3.266c.408.233.871.354 1.341.35a4.563 4.563 0 0 0 2.239-.686 10.971 10.971 0 0 0 4.891-8.608c0-1.907-.838-3.235-2.255-3.51Zm-2.757 11.141a2.681 2.681 0 0 1-4.419-2.548 10.067 10.067 0 0 1 4.571-7.876c.603-.37 1.29-.58 1.996-.61.167-.015.335-.015.503 0 1.203.244 1.935 1.42 1.935 3.052a10.041 10.041 0 0 1-4.586 7.982Z" fill="#F4BC69"/><path d="M170.318 69.227c-1.691.488-1.707 5.906-1.905 7.63-.393 2.281-1 4.52-1.813 6.685-.396 1.313 1.265 2.534 5.059-.473 4.418-3.51 2.27-11.645.335-13.43a1.873 1.873 0 0 0-1.676-.412Z" fill="#F3BC97"/><path d="M169.57 28.356a3.651 3.651 0 0 0-6.491 0c-.884 1.679.107 3.815.274 5.982.381 4.701 3.992 20.176 3.992 20.176s-.076 17.765.838 20.024c.991 1.877 6.217 2.106 6.552.214 0 0 2.682-18.91 2.057-22.756-1.066-6.517-4.449-18.695-7.222-23.64Z" fill="#0F5E70"/><path d="M162.439 162.904c-1.676-1.527-1.523-6.67 2.85-6.716 3.215 0 8.228 6.273 12.037 8.745.137 1.786.213 3.404-1.051 4.671-1.265 1.266-2.956 1.007-4.77.595-3.154-.718-7.1-5.433-9.066-7.295Z" fill="#BB853C"/><path d="M162.441 160.981c-1.143-1.068-1.89-4.792 3.58-4.975 1.859 0 6.903 3.373 9.462 5.204a4.424 4.424 0 0 1 1.89 3.999 4.047 4.047 0 0 1-1.097 2.487c-1.311 1.328-2.956.992-4.769.58-3.154-.702-7.086-5.433-9.066-7.295Z" fill="#D69F47"/><path d="M129.543 175.45c-1.372-1.038-3.048-5.266 2.468-6.105 3.444-.55 12.799 2.014 17.203 4.227.35 1.908.609 3.663-.595 5.159-1.203 1.495-3.611 1.709-5.622 1.526-3.489-.473-11.108-3.037-13.454-4.807Z" fill="#BB853C"/><path d="M129.36 173.694c-1.341-1.023-2.011-4.67 1.966-5.326a24.337 24.337 0 0 1 9.431.854c.397.122 1.113 0 1.524.199a32.845 32.845 0 0 1 6.217 1.984 1.923 1.923 0 0 1 .838 1.327 5.134 5.134 0 0 1-.701 4.396c-1.234 1.526-3.55 1.679-5.516 1.526-3.428-.458-11.458-3.236-13.759-4.96Z" fill="#D69F47"/><path d="M142.282 172.884c0 2.595 5.409 2.168 6.659.306a.938.938 0 0 0 .137-.611c-.549-15.78 2.224-22.801 2.27-32.37 0-2.747.091-6.273.091-6.273.412-4.151.915-7.936 1.296-11.171.381-3.236.228-7.036-3.048-9.157-2.087-1.374-3.611 0-4.677 1.877-1.067 1.877-4.831 1.084-5.989 3.052-.243.412.503 12.118.549 14.85.01 1.812.132 3.621.366 5.418.518 3.831 2.346 34.079 2.346 34.079Z" fill="#F3BC97"/><path d="M144.324 153.167c-.275-5.311-1.28-12.621-1.524-17.933 0-3.25 1.524-14.926 1.524-19.199-1.524 1.145-4.404.687-5.394 2.35-.244.413.502 12.118.548 14.85.01 1.812.132 3.621.366 5.418.579 3.922 2.407 34.171 2.407 34.171 0 1.359 1.524 1.877 3.048 1.816-.137-4.303-.747-17.047-.975-21.473Z" fill="#EFB289"/><path d="M170.455 163.85c.853 1.999 6.095 1.267 6.095-.58-3.734-16.788-2.85-19.947-3.535-27.563a26.265 26.265 0 0 0-1.661-7.066 7.622 7.622 0 0 1-.518-2.793c0-4.029.381-4.578.274-6.791-.152-3.144-2.148-9.722-5.851-11.172-2.316-.916-3.535.733-4.205 2.793-.823 2.564-1.189.412-2.042 2.946-.853 2.533-1.783 3.159-1.234 5.921.137.672 1.417 6.822 2.316 10.683.685 3.511 1.432 5.556 1.828 7.051 2.392 9.02 8.533 26.571 8.533 26.571Z" fill="#F3BC97"/><path d="M167.134 143.857c-1.829-7.356-3.444-14.102-3.444-14.102s-.945-12.591-2.758-18.497c-.701 1.724-1.066.091-1.859 2.426-.899 2.686-1.782 3.16-1.234 5.922.137.672 1.417 6.822 2.316 10.683.686 3.51 1.432 5.556 1.829 7.051 2.331 8.944 8.471 26.556 8.471 26.556.396.915 1.692 1.251 3.048 1.19-.351-.87-5.486-17.688-6.369-21.229Z" fill="#EFB289"/><path d="M166.463 58.544c.275-3.052 1.692-6.105 2.347-9.066a88.635 88.635 0 0 0 1.767-11.492c.259-2.96 1.036-8.424-1.706-10.53-2.743-2.106-7.344-.58-10.133.107-2.788.686-19.274 7.753-19.808 12.728a46.537 46.537 0 0 0-.121 8.592 129.134 129.134 0 0 1 2.422 13.934c.457 6.502-1.295 13.827-1.523 20.802 0 2.015.578 7.05.578 7.05.64 6.243 28.28 1.74 27.564-4.074-.29-6.715-1.737-14.514-1.417-27.471a4.323 4.323 0 0 1 .03-.58Z" fill="#0F5E70"/><path d="M166.965 75.332c5.15 10.683 5.318 38.628 5.318 45.465-.899 9.569-35.502 11.217-35.502 4.456-.167-3.052-2.803-27.242 2.728-45.877 8.837 6.456 26.695 1.893 27.456-4.044Z" fill="#2B2B2D"/><path d="M158.936 21.67c-.807 0-7.618.657-9.599 1.023a20.59 20.59 0 0 1 0 8.929c-.442 2.869 12.494 1.907 11.611-2.763-.153-.793-.808-1.099-1.295-1.74a15.067 15.067 0 0 1-.717-5.448Z" fill="#F3BC97"/><path d="M140.104 9.706c2.422.824 4.83 1.725 7.283 2.457 1.676.504 3.489.595 5.15 1.175 3.047 1.084 4.358 5.708 3.154 8.516a10.344 10.344 0 0 1-1.432 2.35c-1.037 1.313-3.261 3.16-5.044 2.702-2.742-.717-4.571-3.8-5.729-6.105a30.844 30.844 0 0 1-3.382-11.095Z" fill="#F3BC97"/><path d="M160.703 22.434c-.655 2.106-3.382 2.32-4.281 2.396a10.1 10.1 0 0 1-7.756-1.709c-1.783-1.13-7.938-6.715-8.654-8.272a8.423 8.423 0 0 1-.518-6.776c1.523-3.297 1.782-6.105 7.618-7.738a11.318 11.318 0 0 1 6.902.565c3.977-1.13 6.598 2.655 7.314 5.662.604 3.494.676 7.06.213 10.576a25.998 25.998 0 0 1-.838 5.296Z" fill="#442E1D"/><path d="m125.933 68.067-2.407.657a31.195 31.195 0 0 1-4.114.488 11.628 11.628 0 0 0-6.643 2.534 4.184 4.184 0 0 0-1.326 2.838c-.119.63-.2 1.268-.244 1.908l3.794-2.198c.853.244 2.453.687 3.657.946a6.327 6.327 0 0 0 3.946-.274l.427-.244a10.113 10.113 0 0 1 1.524-.351 30.428 30.428 0 0 1 4.723-1.221 31.919 31.919 0 0 1-3.337-5.083Z" fill="#F3BC97"/><path d="M143.349 37.177c-1.965-.687-4.129 1.084-4.571 3.053-.442 1.968-1.646 19.733-1.646 19.733s-13.149 7.112-14.124 7.63c-1.92 1.207.335 7.891 2.682 7.494 0 0 17.872-6.532 19.183-8.44 2.24-3.265 7.161-26.509-1.524-29.47ZM161.48 19.122a3.05 3.05 0 0 1 .64 1.984c.092 2.152-1.234 5.174-3.839 3.938-1.174-.565-.96-2.717-.671-3.816.64-2.365 2.789-3.342 3.87-2.106Z" fill="#0F5E70"/><path d="M161.266 20.206a4.77 4.77 0 0 1 2.834 2.076c1.082 1.434 2.042 2.564.93 4.197a3.957 3.957 0 0 1-4.008 1.755c-2.712-.855-3.58-8.485.244-8.028Z" fill="#442E1D"/><defs><linearGradient id="a" x1="126.954" y1="94.562" x2="89.84" y2="106.903" gradientUnits="userSpaceOnUse"><stop stop-color="#E6E2DB"/><stop offset=".54" stop-color="#D1CDC1"/></linearGradient><linearGradient id="b" x1="166.264" y1="68.556" x2="137.426" y2="118.421" gradientUnits="userSpaceOnUse"><stop stop-color="#DED9CC"/><stop offset="1" stop-color="#D1CDC1"/></linearGradient><linearGradient id="c" x1="169.724" y1="73.011" x2="143.024" y2="119.171" gradientUnits="userSpaceOnUse"><stop stop-color="#DED9CC"/><stop offset="1" stop-color="#D1CDC1"/></linearGradient><linearGradient id="d" x1="172.573" y1="84.199" x2="157.036" y2="116.397" gradientUnits="userSpaceOnUse"><stop stop-color="#93ABAD"/><stop offset="1" stop-color="#BBD3D5"/></linearGradient><linearGradient id="e" x1="163.75" y1="83.924" x2="157.988" y2="113.299" gradientUnits="userSpaceOnUse"><stop stop-color="#87A1A3"/><stop offset="1" stop-color="#ACC6C8"/></linearGradient><linearGradient id="j" x1="159.21" y1="60.803" x2="156.124" y2="66.125" gradientUnits="userSpaceOnUse"><stop stop-color="#DED9CC"/><stop offset="1" stop-color="#D1CDC1"/></linearGradient><linearGradient id="l" x1="70.7" y1="127.084" x2="33.586" y2="139.44" gradientUnits="userSpaceOnUse"><stop stop-color="#E6E2DB"/><stop offset=".54" stop-color="#D1CDC1"/></linearGradient><linearGradient id="m" x1="110.01" y1="101.078" x2="81.172" y2="150.943" gradientUnits="userSpaceOnUse"><stop stop-color="#DED9CC"/><stop offset="1" stop-color="#D1CDC1"/></linearGradient><linearGradient id="n" x1="113.47" y1="105.549" x2="86.77" y2="151.709" gradientUnits="userSpaceOnUse"><stop stop-color="#DED9CC"/><stop offset="1" stop-color="#D1CDC1"/></linearGradient><linearGradient id="o" x1="116.318" y1="116.722" x2="100.781" y2="148.935" gradientUnits="userSpaceOnUse"><stop stop-color="#93ABAD"/><stop offset="1" stop-color="#BBD3D5"/></linearGradient><linearGradient id="p" x1="107.496" y1="116.462" x2="101.734" y2="145.822" gradientUnits="userSpaceOnUse"><stop stop-color="#87A1A3"/><stop offset="1" stop-color="#ACC6C8"/></linearGradient><linearGradient id="u" x1="102.954" y1="93.341" x2="99.869" y2="98.648" gradientUnits="userSpaceOnUse"><stop stop-color="#DED9CC"/><stop offset="1" stop-color="#D1CDC1"/></linearGradient><linearGradient id="w" x1="79.034" y1="179.57" x2="65.409" y2="203.145" gradientUnits="userSpaceOnUse"><stop stop-color="#D1CDC1"/><stop offset=".58" stop-color="#EEECE7"/><stop offset="1" stop-color="#fff"/></linearGradient><linearGradient id="x" x1="73.015" y1="173.862" x2="90.229" y2="203.629" gradientUnits="userSpaceOnUse"><stop stop-color="#F5F2EE"/><stop offset="1" stop-color="#E6E2DB"/></linearGradient><linearGradient id="y" x1="75.939" y1="180.257" x2="67.462" y2="194.896" gradientUnits="userSpaceOnUse"><stop stop-color="#D1CDC1"/><stop offset="1" stop-color="#fff"/></linearGradient><linearGradient id="z" x1="134.315" y1="27.959" x2="128.464" y2="39.032" gradientUnits="userSpaceOnUse"><stop stop-color="#ECE9E3"/><stop offset="1" stop-color="#F5F2EE"/></linearGradient><linearGradient id="A" x1="122.338" y1="20.008" x2="129.027" y2="20.008" gradientUnits="userSpaceOnUse"><stop stop-color="#D1CDC1"/><stop offset=".91" stop-color="#E4E0D8"/><stop offset="1" stop-color="#E6E2DB"/></linearGradient><linearGradient id="B" x1="122.216" y1="17.139" x2="129.149" y2="17.139" gradientUnits="userSpaceOnUse"><stop stop-color="#DD9640"/><stop offset=".61" stop-color="#EAAC57"/><stop offset="1" stop-color="#F4BC69"/></linearGradient><radialGradient id="f" cx="0" cy="0" r="1" gradientUnits="userSpaceOnUse" gradientTransform="matrix(17.2024 0 0 17.2305 160.444 82.871)"><stop stop-color="#FFFCF7"/><stop offset="1" stop-color="#EAE6DF"/></radialGradient><radialGradient id="g" cx="0" cy="0" r="1" gradientUnits="userSpaceOnUse" gradientTransform="matrix(8.62406 0 0 8.63816 135.393 79.59)"><stop stop-color="#97C372"/><stop offset=".02" stop-color="#789B5B"/><stop offset=".04" stop-color="#5C7746"/><stop offset=".07" stop-color="#435733"/><stop offset=".09" stop-color="#2E3B23"/><stop offset=".12" stop-color="#1D2516"/><stop offset=".16" stop-color="#10140C"/><stop offset=".2" stop-color="#070905"/><stop offset=".27" stop-color="#010201"/><stop offset=".44"/><stop offset=".46"/></radialGradient><radialGradient id="h" cx="0" cy="0" r="1" gradientUnits="userSpaceOnUse" gradientTransform="matrix(8.62406 0 0 8.63816 135.393 72.401)"><stop stop-color="#97C372"/><stop offset=".02" stop-color="#789B5B"/><stop offset=".04" stop-color="#5C7746"/><stop offset=".07" stop-color="#435733"/><stop offset=".09" stop-color="#2E3B23"/><stop offset=".12" stop-color="#1D2516"/><stop offset=".16" stop-color="#10140C"/><stop offset=".2" stop-color="#070905"/><stop offset=".27" stop-color="#010201"/><stop offset=".44"/><stop offset=".46"/></radialGradient><radialGradient id="i" cx="0" cy="0" r="1" gradientUnits="userSpaceOnUse" gradientTransform="matrix(8.62406 0 0 8.63816 136.995 71.486)"><stop stop-color="#97C372"/><stop offset=".02" stop-color="#789B5B"/><stop offset=".04" stop-color="#5C7746"/><stop offset=".07" stop-color="#435733"/><stop offset=".09" stop-color="#2E3B23"/><stop offset=".12" stop-color="#1D2516"/><stop offset=".16" stop-color="#10140C"/><stop offset=".2" stop-color="#070905"/><stop offset=".27" stop-color="#010201"/><stop offset=".44"/><stop offset=".46"/></radialGradient><radialGradient id="k" cx="0" cy="0" r="1" gradientUnits="userSpaceOnUse" gradientTransform="matrix(11.5343 0 0 11.5532 156.992 59.15)"><stop stop-color="#ED6552"/><stop offset=".02" stop-color="#C65444"/><stop offset=".03" stop-color="#9D4336"/><stop offset=".06" stop-color="#773329"/><stop offset=".08" stop-color="#57251E"/><stop offset=".11" stop-color="#3B1915"/><stop offset=".14" stop-color="#25100D"/><stop offset=".17" stop-color="#140907"/><stop offset=".21" stop-color="#090403"/><stop offset=".27" stop-color="#020101"/><stop offset=".44"/><stop offset=".46"/></radialGradient><radialGradient id="q" cx="0" cy="0" r="1" gradientUnits="userSpaceOnUse" gradientTransform="matrix(17.1872 0 0 17.2153 104.19 115.394)"><stop stop-color="#FFFCF7"/><stop offset="1" stop-color="#EAE6DF"/></radialGradient><radialGradient id="r" cx="0" cy="0" r="1" gradientUnits="userSpaceOnUse" gradientTransform="matrix(8.62406 0 0 8.63816 79.14 112.127)"><stop stop-color="#97C372"/><stop offset=".02" stop-color="#789B5B"/><stop offset=".04" stop-color="#5C7746"/><stop offset=".07" stop-color="#435733"/><stop offset=".09" stop-color="#2E3B23"/><stop offset=".12" stop-color="#1D2516"/><stop offset=".16" stop-color="#10140C"/><stop offset=".2" stop-color="#070905"/><stop offset=".27" stop-color="#010201"/><stop offset=".44"/><stop offset=".46"/></radialGradient><radialGradient id="s" cx="0" cy="0" r="1" gradientUnits="userSpaceOnUse" gradientTransform="matrix(8.62406 0 0 8.63816 79.14 104.94)"><stop stop-color="#97C372"/><stop offset=".02" stop-color="#789B5B"/><stop offset=".04" stop-color="#5C7746"/><stop offset=".07" stop-color="#435733"/><stop offset=".09" stop-color="#2E3B23"/><stop offset=".12" stop-color="#1D2516"/><stop offset=".16" stop-color="#10140C"/><stop offset=".2" stop-color="#070905"/><stop offset=".27" stop-color="#010201"/><stop offset=".44"/><stop offset=".46"/></radialGradient><radialGradient id="t" cx="0" cy="0" r="1" gradientUnits="userSpaceOnUse" gradientTransform="matrix(8.62406 0 0 8.63816 80.74 104.009)"><stop stop-color="#97C372"/><stop offset=".02" stop-color="#789B5B"/><stop offset=".04" stop-color="#5C7746"/><stop offset=".07" stop-color="#435733"/><stop offset=".09" stop-color="#2E3B23"/><stop offset=".12" stop-color="#1D2516"/><stop offset=".16" stop-color="#10140C"/><stop offset=".2" stop-color="#070905"/><stop offset=".27" stop-color="#010201"/><stop offset=".44"/><stop offset=".46"/></radialGradient><radialGradient id="v" cx="0" cy="0" r="1" gradientUnits="userSpaceOnUse" gradientTransform="matrix(11.5343 0 0 11.5532 100.746 91.687)"><stop stop-color="#ED6552"/><stop offset=".02" stop-color="#C65444"/><stop offset=".03" stop-color="#9D4336"/><stop offset=".06" stop-color="#773329"/><stop offset=".08" stop-color="#57251E"/><stop offset=".11" stop-color="#3B1915"/><stop offset=".14" stop-color="#25100D"/><stop offset=".17" stop-color="#140907"/><stop offset=".21" stop-color="#090403"/><stop offset=".27" stop-color="#020101"/><stop offset=".44"/><stop offset=".46"/></radialGradient></defs></svg>