<svg width="280" height="82" viewBox="0 0 280 82" fill="none" xmlns="http://www.w3.org/2000/svg">
<rect x="0.5" y="0.5" width="279" height="81" rx="7.5" fill="#3574E8" stroke="#3871C9"/>
<path d="M120.64 55.28C118.587 55.28 116.747 54.9467 115.12 54.28C113.493 53.6133 112.187 52.6267 111.2 51.32C110.24 50.0133 109.733 48.44 109.68 46.6H116.96C117.067 47.64 117.427 48.44 118.04 49C118.653 49.5333 119.453 49.8 120.44 49.8C121.453 49.8 122.253 49.5733 122.84 49.12C123.427 48.64 123.72 47.9867 123.72 47.16C123.72 46.4667 123.48 45.8933 123 45.44C122.547 44.9867 121.973 44.6133 121.28 44.32C120.613 44.0267 119.653 43.6933 118.4 43.32C116.587 42.76 115.107 42.2 113.96 41.64C112.813 41.08 111.827 40.2533 111 39.16C110.173 38.0667 109.76 36.64 109.76 34.88C109.76 32.2667 110.707 30.2267 112.6 28.76C114.493 27.2667 116.96 26.52 120 26.52C123.093 26.52 125.587 27.2667 127.48 28.76C129.373 30.2267 130.387 32.28 130.52 34.92H123.12C123.067 34.0133 122.733 33.3067 122.12 32.8C121.507 32.2667 120.72 32 119.76 32C118.933 32 118.267 32.2267 117.76 32.68C117.253 33.1067 117 33.7333 117 34.56C117 35.4667 117.427 36.1733 118.28 36.68C119.133 37.1867 120.467 37.7333 122.28 38.32C124.093 38.9333 125.56 39.52 126.68 40.08C127.827 40.64 128.813 41.4533 129.64 42.52C130.467 43.5867 130.88 44.96 130.88 46.64C130.88 48.24 130.467 49.6933 129.64 51C128.84 52.3067 127.667 53.3467 126.12 54.12C124.573 54.8933 122.747 55.28 120.64 55.28ZM148.809 32.44C151.369 32.44 153.423 33.2933 154.969 35C156.516 36.68 157.289 39 157.289 41.96V55H150.489V42.88C150.489 41.3867 150.103 40.2267 149.329 39.4C148.556 38.5733 147.516 38.16 146.209 38.16C144.903 38.16 143.863 38.5733 143.089 39.4C142.316 40.2267 141.929 41.3867 141.929 42.88V55H135.089V25.4H141.929V35.68C142.623 34.6933 143.569 33.9067 144.769 33.32C145.969 32.7333 147.316 32.44 148.809 32.44ZM160.683 43.8C160.683 41.5067 161.109 39.4933 161.963 37.76C162.843 36.0267 164.029 34.6933 165.523 33.76C167.016 32.8267 168.683 32.36 170.523 32.36C172.096 32.36 173.469 32.68 174.643 33.32C175.843 33.96 176.763 34.8 177.403 35.84V32.68H184.243V55H177.403V51.84C176.736 52.88 175.803 53.72 174.603 54.36C173.429 55 172.056 55.32 170.483 55.32C168.669 55.32 167.016 54.8533 165.523 53.92C164.029 52.96 162.843 51.6133 161.963 49.88C161.109 48.12 160.683 46.0933 160.683 43.8ZM177.403 43.84C177.403 42.1333 176.923 40.7867 175.963 39.8C175.029 38.8133 173.883 38.32 172.523 38.32C171.163 38.32 170.003 38.8133 169.043 39.8C168.109 40.76 167.643 42.0933 167.643 43.8C167.643 45.5067 168.109 46.8667 169.043 47.88C170.003 48.8667 171.163 49.36 172.523 49.36C173.883 49.36 175.029 48.8667 175.963 47.88C176.923 46.8933 177.403 45.5467 177.403 43.84ZM196.031 36.4C196.831 35.1733 197.831 34.2133 199.031 33.52C200.231 32.8 201.564 32.44 203.031 32.44V39.68H201.151C199.444 39.68 198.164 40.0533 197.311 40.8C196.458 41.52 196.031 42.8 196.031 44.64V55H189.191V32.68H196.031V36.4ZM227.34 43.48C227.34 44.12 227.3 44.7867 227.22 45.48H211.74C211.847 46.8667 212.287 47.9333 213.06 48.68C213.86 49.4 214.834 49.76 215.98 49.76C217.687 49.76 218.874 49.04 219.54 47.6H226.82C226.447 49.0667 225.767 50.3867 224.78 51.56C223.82 52.7333 222.607 53.6533 221.14 54.32C219.674 54.9867 218.034 55.32 216.22 55.32C214.034 55.32 212.087 54.8533 210.38 53.92C208.674 52.9867 207.34 51.6533 206.38 49.92C205.42 48.1867 204.94 46.16 204.94 43.84C204.94 41.52 205.407 39.4933 206.34 37.76C207.3 36.0267 208.634 34.6933 210.34 33.76C212.047 32.8267 214.007 32.36 216.22 32.36C218.38 32.36 220.3 32.8133 221.98 33.72C223.66 34.6267 224.967 35.92 225.9 37.6C226.86 39.28 227.34 41.24 227.34 43.48ZM220.34 41.68C220.34 40.5067 219.94 39.5733 219.14 38.88C218.34 38.1867 217.34 37.84 216.14 37.84C214.994 37.84 214.02 38.1733 213.22 38.84C212.447 39.5067 211.967 40.4533 211.78 41.68H220.34Z" fill="white"/>
<path d="M89.4305 37.6473L76.9019 26.3761C75.9528 25.4368 74.8138 26.3761 74.8138 27.8789V33.5145C65.892 33.5145 58.2989 38.9622 54.6922 46.2885C53.3634 48.7306 52.6041 51.3605 52.0346 53.9905C51.6549 55.869 54.5023 56.8083 55.6413 55.1176C59.8175 48.5427 66.8411 44.2221 74.8138 44.2221V50.4213C74.8138 51.9241 75.9528 52.8634 76.9019 51.9241L89.4305 40.6529C90.1898 39.9015 90.1898 38.3987 89.4305 37.6473Z" fill="white"/>
</svg>
