<svg width="280" height="82" viewBox="0 0 280 82" fill="none" xmlns="http://www.w3.org/2000/svg">
<rect x="0.5" y="0.5" width="279" height="81" rx="7.5" fill="#00AAEC" stroke="#0095CF"/>
<path fill-rule="evenodd" clip-rule="evenodd" d="M95.2012 23.4454C93.173 24.3692 90.9892 24.9936 88.6983 25.2726C91.0375 23.8374 92.8328 21.5613 93.6785 18.8504C91.4881 20.1796 89.0679 21.1464 86.4821 21.6648C84.4216 19.4089 81.4762 18 78.2167 18C71.9666 18 66.8959 23.1996 66.8959 29.6123C66.8959 30.5227 66.993 31.4064 67.1875 32.2572C57.7758 31.7716 49.4328 27.1533 43.8433 20.1196C42.8683 21.8407 42.3107 23.8374 42.3107 25.9639C42.3107 29.991 44.3099 33.5458 47.349 35.6292C45.4959 35.5727 43.7459 35.0444 42.2166 34.1806V34.3233C42.2166 39.9516 46.1208 44.6462 51.3049 45.7097C50.3557 45.9823 49.3543 46.1185 48.3206 46.1185C47.5918 46.1185 46.8789 46.0487 46.1885 45.9124C47.6302 50.5242 51.8099 53.8832 56.7671 53.9729C52.8919 57.0896 48.0062 58.9466 42.7022 58.9466C41.7884 58.9466 40.8845 58.8935 40 58.787C45.0125 62.0762 50.9676 64 57.3601 64C78.1935 64 89.582 46.3074 89.582 30.9609C89.582 30.4559 89.5721 29.9509 89.5527 29.4558C91.7667 27.8179 93.6879 25.7746 95.2012 23.4454Z" fill="white"/>
<path d="M138.68 26.92V32.4H131.24V55H124.4V32.4H116.96V26.92H138.68ZM174.153 32.68L168.113 55H160.553L157.033 40.52L153.393 55H145.873L139.793 32.68H146.633L149.793 48.64L153.553 32.68H160.793L164.593 48.56L167.713 32.68H174.153ZM197.801 43.48C197.801 44.12 197.761 44.7867 197.681 45.48H182.201C182.308 46.8667 182.748 47.9333 183.521 48.68C184.321 49.4 185.295 49.76 186.441 49.76C188.148 49.76 189.335 49.04 190.001 47.6H197.281C196.908 49.0667 196.228 50.3867 195.241 51.56C194.281 52.7333 193.068 53.6533 191.601 54.32C190.135 54.9867 188.495 55.32 186.681 55.32C184.495 55.32 182.548 54.8533 180.841 53.92C179.135 52.9867 177.801 51.6533 176.841 49.92C175.881 48.1867 175.401 46.16 175.401 43.84C175.401 41.52 175.868 39.4933 176.801 37.76C177.761 36.0267 179.095 34.6933 180.801 33.76C182.508 32.8267 184.468 32.36 186.681 32.36C188.841 32.36 190.761 32.8133 192.441 33.72C194.121 34.6267 195.428 35.92 196.361 37.6C197.321 39.28 197.801 41.24 197.801 43.48ZM190.801 41.68C190.801 40.5067 190.401 39.5733 189.601 38.88C188.801 38.1867 187.801 37.84 186.601 37.84C185.455 37.84 184.481 38.1733 183.681 38.84C182.908 39.5067 182.428 40.4533 182.241 41.68H190.801ZM222.45 43.48C222.45 44.12 222.41 44.7867 222.33 45.48H206.85C206.956 46.8667 207.396 47.9333 208.17 48.68C208.97 49.4 209.943 49.76 211.09 49.76C212.796 49.76 213.983 49.04 214.65 47.6H221.93C221.556 49.0667 220.876 50.3867 219.89 51.56C218.93 52.7333 217.716 53.6533 216.25 54.32C214.783 54.9867 213.143 55.32 211.33 55.32C209.143 55.32 207.196 54.8533 205.49 53.92C203.783 52.9867 202.45 51.6533 201.49 49.92C200.53 48.1867 200.05 46.16 200.05 43.84C200.05 41.52 200.516 39.4933 201.45 37.76C202.41 36.0267 203.743 34.6933 205.45 33.76C207.156 32.8267 209.116 32.36 211.33 32.36C213.49 32.36 215.41 32.8133 217.09 33.72C218.77 34.6267 220.076 35.92 221.01 37.6C221.97 39.28 222.45 41.24 222.45 43.48ZM215.45 41.68C215.45 40.5067 215.05 39.5733 214.25 38.88C213.45 38.1867 212.45 37.84 211.25 37.84C210.103 37.84 209.13 38.1733 208.33 38.84C207.556 39.5067 207.076 40.4533 206.89 41.68H215.45ZM238.498 49.2V55H235.018C232.538 55 230.605 54.4 229.218 53.2C227.831 51.9733 227.138 49.9867 227.138 47.24V38.36H224.418V32.68H227.138V27.24H233.978V32.68H238.458V38.36H233.978V47.32C233.978 47.9867 234.138 48.4667 234.458 48.76C234.778 49.0533 235.311 49.2 236.058 49.2H238.498Z" fill="white"/>
</svg>
